<svg id="isoflow-0" xmlns="http://www.w3.org/2000/svg" style="max-width: 468.61529541015625px;" viewBox="-373.98098097229 -293.19588470458984 867.4449403686523 636.8917541503906" role="graphics-document document" aria-roledescription="architecture"><style>#isoflow-0{font-family:"trebuchet ms",verdana,arial,sans-serif;font-size:16px;fill:#333;}@keyframes edge-animation-frame{from{stroke-dashoffset:0;}}@keyframes dash{to{stroke-dashoffset:0;}}#isoflow-0 .edge-animation-slow{stroke-dasharray:9,5!important;stroke-dashoffset:900;animation:dash 50s linear infinite;stroke-linecap:round;}#isoflow-0 .edge-animation-fast{stroke-dasharray:9,5!important;stroke-dashoffset:900;animation:dash 20s linear infinite;stroke-linecap:round;}#isoflow-0 .error-icon{fill:hsl(220.5882352941, 100%, 98.3333333333%);}#isoflow-0 .error-text{fill:rgb(8.5000000002, 5.7500000001, 0);stroke:rgb(8.5000000002, 5.7500000001, 0);}#isoflow-0 .edge-thickness-normal{stroke-width:1px;}#isoflow-0 .edge-thickness-thick{stroke-width:3.5px;}#isoflow-0 .edge-pattern-solid{stroke-dasharray:0;}#isoflow-0 .edge-thickness-invisible{stroke-width:0;fill:none;}#isoflow-0 .edge-pattern-dashed{stroke-dasharray:3;}#isoflow-0 .edge-pattern-dotted{stroke-dasharray:2;}#isoflow-0 .marker{fill:rgba(255, 255, 255, 0);stroke:rgba(255, 255, 255, 0);}#isoflow-0 .marker.cross{stroke:rgba(255, 255, 255, 0);}#isoflow-0 svg{font-family:"trebuchet ms",verdana,arial,sans-serif;font-size:16px;}#isoflow-0 p{margin:0;}#isoflow-0 .edge{stroke-width:3;stroke:#777;fill:none;}#isoflow-0 .arrow{fill:#777;}#isoflow-0 .node-bkg{fill:none;stroke:#000;stroke-width:2px;stroke-dasharray:8;}#isoflow-0 .node-icon-text{display:flex;align-items:center;}#isoflow-0 .node-icon-text&gt;div{color:#fff;margin:1px;height:fit-content;text-align:center;overflow:hidden;display:-webkit-box;-webkit-box-orient:vertical;}#isoflow-0 :root{--mermaid-font-family:"trebuchet ms",verdana,arial,sans-serif;}</style><g></g><g class="architecture-edges" transform="matrix(0.707 -0.5 0.707 0.5 0 0)"><g><path d="M 128.80764496835673,186.5251042485941 L 28.5,238.5546117792323 L-71.80764496835673,290.5841193098705 " class="edge" id="L_s3_lambda_0"></path></g><g><path d="M -71.80764496835673,210.58411930987052 L -71.80764496835673,150.20181994784207 L-71.80764496835673,89.81952058581359 " class="edge" id="L_lambda_rds_0"></path></g><g><path d="M 128.80764496835673,-135.0841193098705 L 128.80764496835673,25.7204924693618 L128.80764496835673,186.5251042485941 " class="edge" id="L_internet_s3_0"></path></g></g><g class="architecture-services"><g transform="translate(194.66025369638422, 48.85872964011868)"><g transform="translate(-0.44000000000000483, -120) scale(2, 2)" filter="url(#isoflow-asset-outline-2-3-000)"><path d="M 0 60 L 28.28 80 L 56.56 60 Z" fill="#60A5FA" stroke-linejoin="bevel" stroke="none"></path><path d="M 0 60 L 28.28 80 L 28.28 40 L 0 20 Z" fill="#3B82F6" stroke-linejoin="bevel" stroke="none"></path><path d="M 0 60 L 0 20 L 28.28 40 L 28.28 80 Z" fill="#3B82F6" stroke-linejoin="bevel" stroke="none"></path><path d="M 0 20 L 28.28 0 L 56.56 20 L 28.28 40 Z" fill="#2563EB" stroke-linejoin="bevel" stroke="none"></path><path d="M 28.28 40 L 56.56 60 L 56.56 20 L 28.28 0 Z" fill="#2563EB" stroke-linejoin="bevel" stroke="none"></path><path d="M 28.28 40 L 56.56 20 L 56.56 60 L 28.28 80 Z" fill="#60A5FA" stroke-linejoin="bevel" stroke="none"></path></g><g dy="1em" alignment-baseline="middle" dominant-baseline="middle" text-anchor="middle" transform="translate(84.83999999999999, 20) matrix(0.707 -0.5 0.707 0.5 0 0)"><g><rect class="background" style="stroke: none"></rect><text y="-10.1" style=""><tspan class="text-outer-tspan row" x="0" y="-0.1em" dy="1.1em"><tspan font-style="normal" class="text-inner-tspan" font-weight="normal">S3</tspan><tspan font-style="normal" class="text-inner-tspan" font-weight="normal"> Bucket</tspan></tspan></text></g></g></g><g transform="translate(69.83496735945023, 161.19588213911362)"><g transform="translate(56.559999999999995, 0) matrix(0.707 -0.5 0 -1 0 0) scale(0.5, -0.5)"><svg xmlns="http://www.w3.org/2000/svg" width="80" height="80" viewBox="0 0 256 256" x="-40" y="-40"><defs><linearGradient id="IconifyId19cd2e70e9e2e72741" x1="0%" x2="100%" y1="100%" y2="0%"><stop offset="0%" stop-color="#C8511B"></stop><stop offset="100%" stop-color="#F90"></stop></linearGradient></defs><path fill="url(#IconifyId19cd2e70e9e2e72741)" d="M0 0h256v256H0z"></path><path fill="#FFF" d="M89.624 211.2H49.89l43.945-91.853l19.912 40.992zm7.079-100.63a3.22 3.22 0 0 0-2.887-1.805h-.01a3.2 3.2 0 0 0-2.886 1.82L41.913 213.022a3.203 3.203 0 0 0 2.893 4.58l46.848-.001a3.21 3.21 0 0 0 2.9-1.83l25.65-54.08a3.18 3.18 0 0 0-.016-2.762zM207.985 211.2h-39.477L105.174 78.624a3.21 3.21 0 0 0-2.897-1.824h-25.83l.03-32h50.626l63.042 132.573a3.21 3.21 0 0 0 2.897 1.827h14.943zm3.208-38.4h-16.121L132.03 40.227a3.21 3.21 0 0 0-2.9-1.827H73.273a3.206 3.206 0 0 0-3.208 3.197l-.035 38.4c0 .851.333 1.664.94 2.265c.6.602 1.414.938 2.267.938h27.017l63.337 132.576a3.2 3.2 0 0 0 2.893 1.824h44.709a3.203 3.203 0 0 0 3.207-3.2V176c0-1.766-1.434-3.2-3.207-3.2"></path></svg></g><g dy="1em" alignment-baseline="middle" dominant-baseline="middle" text-anchor="middle" transform="translate(84.83999999999999, 20) matrix(0.707 -0.5 0.707 0.5 0 0)"><g><rect class="background" style="stroke: none"></rect><text y="-10.1" style=""><tspan class="text-outer-tspan row" x="0" y="-0.1em" dy="1.1em"><tspan font-style="normal" class="text-inner-tspan" font-weight="normal">Lambda</tspan></tspan><tspan class="text-outer-tspan row" x="0" y="1em" dy="1.1em"><tspan font-style="normal" class="text-inner-tspan" font-weight="normal">Function</tspan></tspan></text></g></g></g><g transform="translate(-72.105603938458, 60.81358277708516)"><g transform="translate(56.559999999999995, 0) matrix(0.707 -0.5 0 -1 0 0) scale(0.5, -0.5)"><svg xmlns="http://www.w3.org/2000/svg" width="80" height="80" viewBox="0 0 256 256" x="-40" y="-40"><defs><linearGradient id="IconifyId19cd2e70e9e2e72742" x1="0%" x2="100%" y1="100%" y2="0%"><stop offset="0%" stop-color="#2E27AD"></stop><stop offset="100%" stop-color="#527FFF"></stop></linearGradient></defs><path fill="url(#IconifyId19cd2e70e9e2e72742)" d="M0 0h256v256H0z"></path><path fill="#FFF" d="m49.325 44.8l29.737 29.738l-4.524 4.524L44.8 49.325V73.6h-6.4v-32a3.2 3.2 0 0 1 3.2-3.2h32v6.4zM217.6 41.6v32h-6.4V49.325l-29.738 29.737l-4.524-4.524L206.675 44.8H182.4v-6.4h32a3.2 3.2 0 0 1 3.2 3.2m-6.4 140.8h6.4v32a3.2 3.2 0 0 1-3.2 3.2h-32v-6.4h24.275l-29.737-29.738l4.524-4.524l29.738 29.737zm-1.6-56.918c0-10.621-12.262-21.114-32.8-28.068l2.051-6.06C202.458 99.344 216 111.782 216 125.482c0 13.702-13.542 26.144-37.152 34.13l-2.051-6.063c20.54-6.95 32.803-17.44 32.803-28.067m-163.02 0c0 10.176 11.478 20.39 30.706 27.328l-2.172 6.019c-22.202-8.01-34.935-20.163-34.935-33.347c0-13.181 12.733-25.335 34.935-33.348l2.172 6.02c-19.228 6.94-30.707 17.155-30.707 27.328m32.482 55.98L49.325 211.2H73.6v6.4h-32a3.2 3.2 0 0 1-3.2-3.2v-32h6.4v24.275l29.738-29.737zM128 100.115c-22.867 0-35.2-5.907-35.2-8.32c0-2.416 12.333-8.32 35.2-8.32c22.864 0 35.2 5.904 35.2 8.32c0 2.413-12.336 8.32-35.2 8.32m.093 24.784c-21.895 0-35.293-5.98-35.293-9.235v-15.555c7.882 4.349 21.862 6.406 35.2 6.406s27.318-2.057 35.2-6.406v15.555c0 3.258-13.328 9.235-35.107 9.235m0 24.435c-21.895 0-35.293-5.98-35.293-9.235v-15.74c7.78 4.572 21.574 6.94 35.293 6.94c13.641 0 27.357-2.365 35.107-6.925V140.1c0 3.258-13.328 9.235-35.107 9.235M128 171.258c-22.774 0-35.2-6.122-35.2-9.268v-13.196c7.78 4.572 21.574 6.94 35.293 6.94c13.641 0 27.357-2.361 35.107-6.924v13.18c0 3.146-12.426 9.268-35.2 9.268m0-94.183c-20.035 0-41.6 4.605-41.6 14.72v70.195c0 10.285 20.928 15.668 41.6 15.668s41.6-5.383 41.6-15.668V91.795c0-10.115-21.565-14.72-41.6-14.72"></path></svg></g><g dy="1em" alignment-baseline="middle" dominant-baseline="middle" text-anchor="middle" transform="translate(84.83999999999999, 20) matrix(0.707 -0.5 0.707 0.5 0 0)"><g><rect class="background" style="stroke: none"></rect><text y="-10.1" style=""><tspan class="text-outer-tspan row" x="0" y="-0.1em" dy="1.1em"><tspan font-style="normal" class="text-inner-tspan" font-weight="normal">Aurora</tspan><tspan font-style="normal" class="text-inner-tspan" font-weight="normal"> DB</tspan></tspan></text></g></g></g><g transform="translate(-89.27746735945024, -151.94588213911362)"><g transform="translate(56.559999999999995, 0) matrix(0.707 -0.5 0 -1 0 0) scale(0.5, -0.5)"><svg xmlns="http://www.w3.org/2000/svg" width="80" height="80" viewBox="0 0 80 80" x="-40" y="-40"><g><rect width="80" height="80" style="fill: #087ebf; stroke-width: 0px;"></rect><circle cx="40" cy="40" r="22.5" style="fill: none; stroke: #fff; stroke-miterlimit: 10; stroke-width: 2px;"></circle><line x1="40" y1="17.5" x2="40" y2="62.5" style="fill: none; stroke: #fff; stroke-miterlimit: 10; stroke-width: 2px;"></line><line x1="17.5" y1="40" x2="62.5" y2="40" style="fill: none; stroke: #fff; stroke-miterlimit: 10; stroke-width: 2px;"></line><path d="m39.99,17.51c-15.28,11.1-15.28,33.88,0,44.98" style="fill: none; stroke: #fff; stroke-miterlimit: 10; stroke-width: 2px;"></path><path d="m40.01,17.51c15.28,11.1,15.28,33.88,0,44.98" style="fill: none; stroke: #fff; stroke-miterlimit: 10; stroke-width: 2px;"></path><line x1="19.75" y1="30.1" x2="60.25" y2="30.1" style="fill: none; stroke: #fff; stroke-miterlimit: 10; stroke-width: 2px;"></line><line x1="19.75" y1="49.9" x2="60.25" y2="49.9" style="fill: none; stroke: #fff; stroke-miterlimit: 10; stroke-width: 2px;"></line></g></svg></g><g dy="1em" alignment-baseline="middle" dominant-baseline="middle" text-anchor="middle" transform="translate(84.83999999999999, 20) matrix(0.707 -0.5 0.707 0.5 0 0)"><g><rect class="background" style="stroke: none"></rect><text y="-10.1" style=""><tspan class="text-outer-tspan row" x="0" y="-0.1em" dy="1.1em"><tspan font-style="normal" class="text-inner-tspan" font-weight="normal">Internet</tspan></tspan></text></g></g></g></g><g class="architecture-groups" transform="matrix(0.707 -0.5 0.707 0.5 0 0)"><rect id="group-cloud" x="-177.30764496835673" y="-32.680479414186394" width="388.61528993671345" height="382.7645987240569" class="node-bkg"></rect><g><g transform="translate(-176.30764496835673, -31.680479414186394)"><g><svg xmlns="http://www.w3.org/2000/svg" width="30" height="30" viewBox="0 0 80 80"><g><rect width="80" height="80" style="fill: #087ebf; stroke-width: 0px;"></rect><path d="m65,47.5c0,2.76-2.24,5-5,5H20c-2.76,0-5-2.24-5-5,0-1.87,1.03-3.51,2.56-4.36-.04-.21-.06-.42-.06-.64,0-2.6,2.48-4.74,5.65-4.97,1.65-4.51,6.34-7.76,11.85-7.76.86,0,1.69.08,2.5.23,2.09-1.57,4.69-2.5,7.5-2.5,6.1,0,11.19,4.38,12.28,10.17,2.14.56,3.72,2.51,3.72,4.83,0,.03,0,.07-.01.1,2.29.46,4.01,2.48,4.01,4.9Z" style="fill: none; stroke: #fff; stroke-miterlimit: 10; stroke-width: 2px;"></path></g></svg></g></g><g dy="1em" alignment-baseline="middle" dominant-baseline="start" text-anchor="start" transform="translate(-143.30764496835673, -25.680479414186394)"><g><rect class="background" style="stroke: none"></rect><text y="-10.1" style=""><tspan class="text-outer-tspan row" x="0" y="-0.1em" dy="1.1em"><tspan font-style="normal" class="text-inner-tspan" font-weight="normal">AWS</tspan><tspan font-style="normal" class="text-inner-tspan" font-weight="normal"> Cloud</tspan></tspan></text></g></g></g></g></svg>