<svg id="arch" width="100%" xmlns="http://www.w3.org/2000/svg" style="max-width: 249px;" viewBox="-83.44770431518555 -607.8743286132812 249 1346.7486572265625" role="graphics-document document" aria-roledescription="architecture"><style>#arch{font-family:"trebuchet ms",verdana,arial,sans-serif;font-size:16px;fill:#333;}@keyframes edge-animation-frame{from{stroke-dashoffset:0;}}@keyframes dash{to{stroke-dashoffset:0;}}#arch .edge-animation-slow{stroke-dasharray:9,5!important;stroke-dashoffset:900;animation:dash 50s linear infinite;stroke-linecap:round;}#arch .edge-animation-fast{stroke-dasharray:9,5!important;stroke-dashoffset:900;animation:dash 20s linear infinite;stroke-linecap:round;}#arch .error-icon{fill:hsl(220.5882352941, 100%, 98.3333333333%);}#arch .error-text{fill:rgb(8.5000000002, 5.7500000001, 0);stroke:rgb(8.5000000002, 5.7500000001, 0);}#arch .edge-thickness-normal{stroke-width:1px;}#arch .edge-thickness-thick{stroke-width:3.5px;}#arch .edge-pattern-solid{stroke-dasharray:0;}#arch .edge-thickness-invisible{stroke-width:0;fill:none;}#arch .edge-pattern-dashed{stroke-dasharray:3;}#arch .edge-pattern-dotted{stroke-dasharray:2;}#arch .marker{fill:rgba(255, 255, 255, 0);stroke:rgba(255, 255, 255, 0);}#arch .marker.cross{stroke:rgba(255, 255, 255, 0);}#arch svg{font-family:"trebuchet ms",verdana,arial,sans-serif;font-size:16px;}#arch p{margin:0;}#arch .edge{stroke-width:3;stroke:#777;fill:none;}#arch .arrow{fill:#777;}#arch .node-bkg{fill:none;stroke:#000;stroke-width:2px;stroke-dasharray:8;}#arch .node-icon-text{display:flex;align-items:center;}#arch .node-icon-text&gt;div{color:#fff;margin:1px;height:fit-content;text-align:center;overflow:hidden;display:-webkit-box;-webkit-box-orient:vertical;}#arch :root{--mermaid-font-family:"trebuchet ms",verdana,arial,sans-serif;}</style><g></g><g class="architecture-edges"><g><path d="M 41.05229515221081,559.3743289746126 L 41.05229515221081,378.52544950265315 L41.05229515221081,197.67657003069365 " class="edge" id="L_kafka_spark_0"></path></g><g><path d="M 39.92660734626721,358.02118891322493 L 39.92660734626721,177.1723094412655 L39.92660734626721,-3.676570030693938 " class="edge" id="L_s3_lambda_0"></path></g><g><path d="M 41.05229515221081,117.67657003069365 L 41.05229515221081,-63.17230944126578 L41.05229515221081,-244.02118891322522 " class="edge" id="L_spark_warehouse_0"></path></g><g><path d="M 39.92660734626721,-83.67657003069394 L 39.92660734626721,-264.52544950265326 L39.92660734626721,-445.3743289746126 " class="edge" id="L_lambda_analytics_0"></path></g></g><g class="architecture-services"><g id="service-kafka" class="architecture-service" transform="translate(1.0522951522108102,559.3743289746126)"><g dy="1em" alignment-baseline="middle" dominant-baseline="middle" text-anchor="middle" transform="translate(40, 80)"><g><rect class="background" style="stroke: none"></rect><text y="-10.1" style=""><tspan class="text-outer-tspan row" x="0" y="-0.1em" dy="1.1em"><tspan font-style="normal" class="text-inner-tspan" font-weight="normal">Kafka</tspan></tspan></text></g></g><g><g><svg xmlns="http://www.w3.org/2000/svg" width="80" height="80" viewBox="0 0 80 80"><g><rect width="80" height="80" style="fill: #087ebf; stroke-width: 0px;"></rect><rect x="17.5" y="17.5" width="45" height="45" rx="2" ry="2" style="fill: none; stroke: #fff; stroke-miterlimit: 10; stroke-width: 2px;"></rect><line x1="17.5" y1="32.5" x2="62.5" y2="32.5" style="fill: none; stroke: #fff; stroke-miterlimit: 10; stroke-width: 2px;"></line><line x1="17.5" y1="47.5" x2="62.5" y2="47.5" style="fill: none; stroke: #fff; stroke-miterlimit: 10; stroke-width: 2px;"></line><g><path d="m56.25,25c0,.27-.45.5-1,.5h-10.5c-.55,0-1-.23-1-.5s.45-.5,1-.5h10.5c.55,0,1,.23,1,.5Z" style="fill: #fff; stroke-width: 0px;"></path><path d="m56.25,25c0,.27-.45.5-1,.5h-10.5c-.55,0-1-.23-1-.5s.45-.5,1-.5h10.5c.55,0,1,.23,1,.5Z" style="fill: none; stroke: #fff; stroke-miterlimit: 10;"></path></g><g><path d="m56.25,40c0,.27-.45.5-1,.5h-10.5c-.55,0-1-.23-1-.5s.45-.5,1-.5h10.5c.55,0,1,.23,1,.5Z" style="fill: #fff; stroke-width: 0px;"></path><path d="m56.25,40c0,.27-.45.5-1,.5h-10.5c-.55,0-1-.23-1-.5s.45-.5,1-.5h10.5c.55,0,1,.23,1,.5Z" style="fill: none; stroke: #fff; stroke-miterlimit: 10;"></path></g><g><path d="m56.25,55c0,.27-.45.5-1,.5h-10.5c-.55,0-1-.23-1-.5s.45-.5,1-.5h10.5c.55,0,1,.23,1,.5Z" style="fill: #fff; stroke-width: 0px;"></path><path d="m56.25,55c0,.27-.45.5-1,.5h-10.5c-.55,0-1-.23-1-.5s.45-.5,1-.5h10.5c.55,0,1,.23,1,.5Z" style="fill: none; stroke: #fff; stroke-miterlimit: 10;"></path></g><g><circle cx="32.5" cy="25" r=".75" style="fill: #fff; stroke: #fff; stroke-miterlimit: 10;"></circle><circle cx="27.5" cy="25" r=".75" style="fill: #fff; stroke: #fff; stroke-miterlimit: 10;"></circle><circle cx="22.5" cy="25" r=".75" style="fill: #fff; stroke: #fff; stroke-miterlimit: 10;"></circle></g><g><circle cx="32.5" cy="40" r=".75" style="fill: #fff; stroke: #fff; stroke-miterlimit: 10;"></circle><circle cx="27.5" cy="40" r=".75" style="fill: #fff; stroke: #fff; stroke-miterlimit: 10;"></circle><circle cx="22.5" cy="40" r=".75" style="fill: #fff; stroke: #fff; stroke-miterlimit: 10;"></circle></g><g><circle cx="32.5" cy="55" r=".75" style="fill: #fff; stroke: #fff; stroke-miterlimit: 10;"></circle><circle cx="27.5" cy="55" r=".75" style="fill: #fff; stroke: #fff; stroke-miterlimit: 10;"></circle><circle cx="22.5" cy="55" r=".75" style="fill: #fff; stroke: #fff; stroke-miterlimit: 10;"></circle></g></g></svg></g></g></g><g id="service-s3" class="architecture-service" transform="translate(-0.07339265373278892,358.02118891322493)"><g dy="1em" alignment-baseline="middle" dominant-baseline="middle" text-anchor="middle" transform="translate(40, 80)"><g><rect class="background" style="stroke: none"></rect><text y="-10.1" style=""><tspan class="text-outer-tspan row" x="0" y="-0.1em" dy="1.1em"><tspan font-style="normal" class="text-inner-tspan" font-weight="normal">S3</tspan><tspan font-style="normal" class="text-inner-tspan" font-weight="normal"> Raw</tspan></tspan></text></g></g><g><g><svg xmlns="http://www.w3.org/2000/svg" width="80" height="80" viewBox="0 0 80 80"><g><rect width="80" height="80" style="fill: #087ebf; stroke-width: 0px;"></rect><rect x="20" y="15" width="40" height="50" rx="1" ry="1" style="fill: none; stroke: #fff; stroke-miterlimit: 10; stroke-width: 2px;"></rect><ellipse cx="24" cy="19.17" rx=".8" ry=".83" style="fill: none; stroke: #fff; stroke-miterlimit: 10; stroke-width: 2px;"></ellipse><ellipse cx="56" cy="19.17" rx=".8" ry=".83" style="fill: none; stroke: #fff; stroke-miterlimit: 10; stroke-width: 2px;"></ellipse><ellipse cx="24" cy="60.83" rx=".8" ry=".83" style="fill: none; stroke: #fff; stroke-miterlimit: 10; stroke-width: 2px;"></ellipse><ellipse cx="56" cy="60.83" rx=".8" ry=".83" style="fill: none; stroke: #fff; stroke-miterlimit: 10; stroke-width: 2px;"></ellipse><ellipse cx="40" cy="33.75" rx="14" ry="14.58" style="fill: none; stroke: #fff; stroke-miterlimit: 10; stroke-width: 2px;"></ellipse><ellipse cx="40" cy="33.75" rx="4" ry="4.17" style="fill: #fff; stroke: #fff; stroke-miterlimit: 10; stroke-width: 2px;"></ellipse><path d="m37.51,42.52l-4.83,13.22c-.26.71-1.1,1.02-1.76.64l-4.18-2.42c-.66-.38-.81-1.26-.33-1.84l9.01-10.8c.88-1.05,2.56-.08,2.09,1.2Z" style="fill: #fff; stroke-width: 0px;"></path></g></svg></g></g></g><g id="service-spark" class="architecture-service" transform="translate(1.0522951522108102,117.67657003069365)"><g dy="1em" alignment-baseline="middle" dominant-baseline="middle" text-anchor="middle" transform="translate(40, 80)"><g><rect class="background" style="stroke: none"></rect><text y="-10.1" style=""><tspan class="text-outer-tspan row" x="0" y="-0.1em" dy="1.1em"><tspan font-style="normal" class="text-inner-tspan" font-weight="normal">Spark</tspan></tspan></text></g></g><g><g><svg xmlns="http://www.w3.org/2000/svg" width="80" height="80" viewBox="0 0 80 80"><g><rect width="80" height="80" style="fill: #087ebf; stroke-width: 0px;"></rect><rect x="17.5" y="17.5" width="45" height="45" rx="2" ry="2" style="fill: none; stroke: #fff; stroke-miterlimit: 10; stroke-width: 2px;"></rect><line x1="17.5" y1="32.5" x2="62.5" y2="32.5" style="fill: none; stroke: #fff; stroke-miterlimit: 10; stroke-width: 2px;"></line><line x1="17.5" y1="47.5" x2="62.5" y2="47.5" style="fill: none; stroke: #fff; stroke-miterlimit: 10; stroke-width: 2px;"></line><g><path d="m56.25,25c0,.27-.45.5-1,.5h-10.5c-.55,0-1-.23-1-.5s.45-.5,1-.5h10.5c.55,0,1,.23,1,.5Z" style="fill: #fff; stroke-width: 0px;"></path><path d="m56.25,25c0,.27-.45.5-1,.5h-10.5c-.55,0-1-.23-1-.5s.45-.5,1-.5h10.5c.55,0,1,.23,1,.5Z" style="fill: none; stroke: #fff; stroke-miterlimit: 10;"></path></g><g><path d="m56.25,40c0,.27-.45.5-1,.5h-10.5c-.55,0-1-.23-1-.5s.45-.5,1-.5h10.5c.55,0,1,.23,1,.5Z" style="fill: #fff; stroke-width: 0px;"></path><path d="m56.25,40c0,.27-.45.5-1,.5h-10.5c-.55,0-1-.23-1-.5s.45-.5,1-.5h10.5c.55,0,1,.23,1,.5Z" style="fill: none; stroke: #fff; stroke-miterlimit: 10;"></path></g><g><path d="m56.25,55c0,.27-.45.5-1,.5h-10.5c-.55,0-1-.23-1-.5s.45-.5,1-.5h10.5c.55,0,1,.23,1,.5Z" style="fill: #fff; stroke-width: 0px;"></path><path d="m56.25,55c0,.27-.45.5-1,.5h-10.5c-.55,0-1-.23-1-.5s.45-.5,1-.5h10.5c.55,0,1,.23,1,.5Z" style="fill: none; stroke: #fff; stroke-miterlimit: 10;"></path></g><g><circle cx="32.5" cy="25" r=".75" style="fill: #fff; stroke: #fff; stroke-miterlimit: 10;"></circle><circle cx="27.5" cy="25" r=".75" style="fill: #fff; stroke: #fff; stroke-miterlimit: 10;"></circle><circle cx="22.5" cy="25" r=".75" style="fill: #fff; stroke: #fff; stroke-miterlimit: 10;"></circle></g><g><circle cx="32.5" cy="40" r=".75" style="fill: #fff; stroke: #fff; stroke-miterlimit: 10;"></circle><circle cx="27.5" cy="40" r=".75" style="fill: #fff; stroke: #fff; stroke-miterlimit: 10;"></circle><circle cx="22.5" cy="40" r=".75" style="fill: #fff; stroke: #fff; stroke-miterlimit: 10;"></circle></g><g><circle cx="32.5" cy="55" r=".75" style="fill: #fff; stroke: #fff; stroke-miterlimit: 10;"></circle><circle cx="27.5" cy="55" r=".75" style="fill: #fff; stroke: #fff; stroke-miterlimit: 10;"></circle><circle cx="22.5" cy="55" r=".75" style="fill: #fff; stroke: #fff; stroke-miterlimit: 10;"></circle></g></g></svg></g></g></g><g id="service-lambda" class="architecture-service" transform="translate(-0.07339265373278892,-83.67657003069394)"><g dy="1em" alignment-baseline="middle" dominant-baseline="middle" text-anchor="middle" transform="translate(40, 80)"><g><rect class="background" style="stroke: none"></rect><text y="-10.1" style=""><tspan class="text-outer-tspan row" x="0" y="-0.1em" dy="1.1em"><tspan font-style="normal" class="text-inner-tspan" font-weight="normal">Lambda</tspan></tspan></text></g></g><g><g><svg xmlns="http://www.w3.org/2000/svg" width="80" height="80" viewBox="0 0 80 80"><g><rect width="80" height="80" style="fill: #087ebf; stroke-width: 0px;"></rect><rect x="17.5" y="17.5" width="45" height="45" rx="2" ry="2" style="fill: none; stroke: #fff; stroke-miterlimit: 10; stroke-width: 2px;"></rect><line x1="17.5" y1="32.5" x2="62.5" y2="32.5" style="fill: none; stroke: #fff; stroke-miterlimit: 10; stroke-width: 2px;"></line><line x1="17.5" y1="47.5" x2="62.5" y2="47.5" style="fill: none; stroke: #fff; stroke-miterlimit: 10; stroke-width: 2px;"></line><g><path d="m56.25,25c0,.27-.45.5-1,.5h-10.5c-.55,0-1-.23-1-.5s.45-.5,1-.5h10.5c.55,0,1,.23,1,.5Z" style="fill: #fff; stroke-width: 0px;"></path><path d="m56.25,25c0,.27-.45.5-1,.5h-10.5c-.55,0-1-.23-1-.5s.45-.5,1-.5h10.5c.55,0,1,.23,1,.5Z" style="fill: none; stroke: #fff; stroke-miterlimit: 10;"></path></g><g><path d="m56.25,40c0,.27-.45.5-1,.5h-10.5c-.55,0-1-.23-1-.5s.45-.5,1-.5h10.5c.55,0,1,.23,1,.5Z" style="fill: #fff; stroke-width: 0px;"></path><path d="m56.25,40c0,.27-.45.5-1,.5h-10.5c-.55,0-1-.23-1-.5s.45-.5,1-.5h10.5c.55,0,1,.23,1,.5Z" style="fill: none; stroke: #fff; stroke-miterlimit: 10;"></path></g><g><path d="m56.25,55c0,.27-.45.5-1,.5h-10.5c-.55,0-1-.23-1-.5s.45-.5,1-.5h10.5c.55,0,1,.23,1,.5Z" style="fill: #fff; stroke-width: 0px;"></path><path d="m56.25,55c0,.27-.45.5-1,.5h-10.5c-.55,0-1-.23-1-.5s.45-.5,1-.5h10.5c.55,0,1,.23,1,.5Z" style="fill: none; stroke: #fff; stroke-miterlimit: 10;"></path></g><g><circle cx="32.5" cy="25" r=".75" style="fill: #fff; stroke: #fff; stroke-miterlimit: 10;"></circle><circle cx="27.5" cy="25" r=".75" style="fill: #fff; stroke: #fff; stroke-miterlimit: 10;"></circle><circle cx="22.5" cy="25" r=".75" style="fill: #fff; stroke: #fff; stroke-miterlimit: 10;"></circle></g><g><circle cx="32.5" cy="40" r=".75" style="fill: #fff; stroke: #fff; stroke-miterlimit: 10;"></circle><circle cx="27.5" cy="40" r=".75" style="fill: #fff; stroke: #fff; stroke-miterlimit: 10;"></circle><circle cx="22.5" cy="40" r=".75" style="fill: #fff; stroke: #fff; stroke-miterlimit: 10;"></circle></g><g><circle cx="32.5" cy="55" r=".75" style="fill: #fff; stroke: #fff; stroke-miterlimit: 10;"></circle><circle cx="27.5" cy="55" r=".75" style="fill: #fff; stroke: #fff; stroke-miterlimit: 10;"></circle><circle cx="22.5" cy="55" r=".75" style="fill: #fff; stroke: #fff; stroke-miterlimit: 10;"></circle></g></g></svg></g></g></g><g id="service-warehouse" class="architecture-service" transform="translate(1.0522951522108102,-324.0211889132252)"><g dy="1em" alignment-baseline="middle" dominant-baseline="middle" text-anchor="middle" transform="translate(40, 80)"><g><rect class="background" style="stroke: none"></rect><text y="-10.1" style=""><tspan class="text-outer-tspan row" x="0" y="-0.1em" dy="1.1em"><tspan font-style="normal" class="text-inner-tspan" font-weight="normal">Warehouse</tspan></tspan></text></g></g><g><g><svg xmlns="http://www.w3.org/2000/svg" width="80" height="80" viewBox="0 0 80 80"><g><rect width="80" height="80" style="fill: #087ebf; stroke-width: 0px;"></rect><path id="IconifyId19cd2c4c641adde8c0" data-name="4" d="m20,57.86c0,3.94,8.95,7.14,20,7.14s20-3.2,20-7.14" style="fill: none; stroke: #fff; stroke-miterlimit: 10; stroke-width: 2px;"></path><path id="IconifyId19cd2c4c641adde8c1" data-name="3" d="m20,45.95c0,3.94,8.95,7.14,20,7.14s20-3.2,20-7.14" style="fill: none; stroke: #fff; stroke-miterlimit: 10; stroke-width: 2px;"></path><path id="IconifyId19cd2c4c641adde8c2" data-name="2" d="m20,34.05c0,3.94,8.95,7.14,20,7.14s20-3.2,20-7.14" style="fill: none; stroke: #fff; stroke-miterlimit: 10; stroke-width: 2px;"></path><ellipse id="IconifyId19cd2c4c641adde8c3" data-name="1" cx="40" cy="22.14" rx="20" ry="7.14" style="fill: none; stroke: #fff; stroke-miterlimit: 10; stroke-width: 2px;"></ellipse><line x1="20" y1="57.86" x2="20" y2="22.14" style="fill: none; stroke: #fff; stroke-miterlimit: 10; stroke-width: 2px;"></line><line x1="60" y1="57.86" x2="60" y2="22.14" style="fill: none; stroke: #fff; stroke-miterlimit: 10; stroke-width: 2px;"></line></g></svg></g></g></g><g id="service-analytics" class="architecture-service" transform="translate(-0.07339265373278892,-525.3743289746126)"><g dy="1em" alignment-baseline="middle" dominant-baseline="middle" text-anchor="middle" transform="translate(40, 80)"><g><rect class="background" style="stroke: none"></rect><text y="-10.1" style=""><tspan class="text-outer-tspan row" x="0" y="-0.1em" dy="1.1em"><tspan font-style="normal" class="text-inner-tspan" font-weight="normal">Analytics</tspan></tspan></text></g></g><g><g><svg xmlns="http://www.w3.org/2000/svg" width="80" height="80" viewBox="0 0 80 80"><g><rect width="80" height="80" style="fill: #087ebf; stroke-width: 0px;"></rect><path id="IconifyId19cd2c4c641adde8c4" data-name="4" d="m20,57.86c0,3.94,8.95,7.14,20,7.14s20-3.2,20-7.14" style="fill: none; stroke: #fff; stroke-miterlimit: 10; stroke-width: 2px;"></path><path id="IconifyId19cd2c4c641adde8c5" data-name="3" d="m20,45.95c0,3.94,8.95,7.14,20,7.14s20-3.2,20-7.14" style="fill: none; stroke: #fff; stroke-miterlimit: 10; stroke-width: 2px;"></path><path id="IconifyId19cd2c4c641adde8c6" data-name="2" d="m20,34.05c0,3.94,8.95,7.14,20,7.14s20-3.2,20-7.14" style="fill: none; stroke: #fff; stroke-miterlimit: 10; stroke-width: 2px;"></path><ellipse id="IconifyId19cd2c4c641adde8c7" data-name="1" cx="40" cy="22.14" rx="20" ry="7.14" style="fill: none; stroke: #fff; stroke-miterlimit: 10; stroke-width: 2px;"></ellipse><line x1="20" y1="57.86" x2="20" y2="22.14" style="fill: none; stroke: #fff; stroke-miterlimit: 10; stroke-width: 2px;"></line><line x1="60" y1="57.86" x2="60" y2="22.14" style="fill: none; stroke: #fff; stroke-miterlimit: 10; stroke-width: 2px;"></line></g></svg></g></g></g></g><g class="architecture-groups"><rect id="group-ingest" x="-42.57339265373278" y="315.52118891322493" width="166.12568780594358" height="383.35314006138765" class="node-bkg"></rect><g><g transform="translate(-41.57339265373278, 316.52118891322493)"><g><svg xmlns="http://www.w3.org/2000/svg" width="30" height="30" viewBox="0 0 80 80"><g><rect width="80" height="80" style="fill: #087ebf; stroke-width: 0px;"></rect><text transform="translate(21.16 64.67)" style="fill: #fff; font-family: ArialMT, Arial; font-size: 67.75px;"><tspan x="0" y="0">?</tspan></text></g></svg></g></g><g dy="1em" alignment-baseline="middle" dominant-baseline="start" text-anchor="start" transform="translate(-8.573392653732782, 322.52118891322493)"><g><rect class="background" style="stroke: none"></rect><text y="-10.1" style=""><tspan class="text-outer-tspan row" x="0" y="-0.1em" dy="1.1em"><tspan font-style="normal" class="text-inner-tspan" font-weight="normal">Ingestion</tspan></tspan></text></g></g></g><rect id="group-process" x="-42.57339265373278" y="-126.17657003069394" width="166.12568780594358" height="383.3531400613876" class="node-bkg"></rect><g><g transform="translate(-41.57339265373278, -125.17657003069394)"><g><svg xmlns="http://www.w3.org/2000/svg" width="30" height="30" viewBox="0 0 80 80"><g><rect width="80" height="80" style="fill: #087ebf; stroke-width: 0px;"></rect><text transform="translate(21.16 64.67)" style="fill: #fff; font-family: ArialMT, Arial; font-size: 67.75px;"><tspan x="0" y="0">?</tspan></text></g></svg></g></g><g dy="1em" alignment-baseline="middle" dominant-baseline="start" text-anchor="start" transform="translate(-8.573392653732782, -119.17657003069394)"><g><rect class="background" style="stroke: none"></rect><text y="-10.1" style=""><tspan class="text-outer-tspan row" x="0" y="-0.1em" dy="1.1em"><tspan font-style="normal" class="text-inner-tspan" font-weight="normal">Processing</tspan></tspan></text></g></g></g><rect id="group-store" x="-43.4477048477892" y="-567.8743289746126" width="169" height="383.3531400613874" class="node-bkg"></rect><g><g transform="translate(-42.4477048477892, -566.8743289746126)"><g><svg xmlns="http://www.w3.org/2000/svg" width="30" height="30" viewBox="0 0 80 80"><g><rect width="80" height="80" style="fill: #087ebf; stroke-width: 0px;"></rect><text transform="translate(21.16 64.67)" style="fill: #fff; font-family: ArialMT, Arial; font-size: 67.75px;"><tspan x="0" y="0">?</tspan></text></g></svg></g></g><g dy="1em" alignment-baseline="middle" dominant-baseline="start" text-anchor="start" transform="translate(-9.447704847789197, -560.8743289746126)"><g><rect class="background" style="stroke: none"></rect><text y="-10.1" style=""><tspan class="text-outer-tspan row" x="0" y="-0.1em" dy="1.1em"><tspan font-style="normal" class="text-inner-tspan" font-weight="normal">Storage</tspan></tspan></text></g></g></g></g></svg>