<svg id="isoflow-0" xmlns="http://www.w3.org/2000/svg" class="flowchart" style="max-width: 133.796875px;" viewBox="-40 -106.8984375 496.986390625 374.8984375" role="graphics-document document" aria-roledescription="flowchart-v2"><g transform="matrix(0.707 -0.5 0.707 0.5 0 0)"><style>#isoflow-0{font-family:"trebuchet ms",verdana,arial,sans-serif;font-size:16px;fill:#333;}@keyframes edge-animation-frame{from{stroke-dashoffset:0;}}@keyframes dash{to{stroke-dashoffset:0;}}#isoflow-0 .edge-animation-slow{stroke-dasharray:9,5!important;stroke-dashoffset:900;animation:dash 50s linear infinite;stroke-linecap:round;}#isoflow-0 .edge-animation-fast{stroke-dasharray:9,5!important;stroke-dashoffset:900;animation:dash 20s linear infinite;stroke-linecap:round;}#isoflow-0 .error-icon{fill:hsl(220.5882352941, 100%, 98.3333333333%);}#isoflow-0 .error-text{fill:rgb(8.5000000002, 5.7500000001, 0);stroke:rgb(8.5000000002, 5.7500000001, 0);}#isoflow-0 .edge-thickness-normal{stroke-width:1px;}#isoflow-0 .edge-thickness-thick{stroke-width:3.5px;}#isoflow-0 .edge-pattern-solid{stroke-dasharray:0;}#isoflow-0 .edge-thickness-invisible{stroke-width:0;fill:none;}#isoflow-0 .edge-pattern-dashed{stroke-dasharray:3;}#isoflow-0 .edge-pattern-dotted{stroke-dasharray:2;}#isoflow-0 .marker{fill:rgba(255, 255, 255, 0);stroke:rgba(255, 255, 255, 0);}#isoflow-0 .marker.cross{stroke:rgba(255, 255, 255, 0);}#isoflow-0 svg{font-family:"trebuchet ms",verdana,arial,sans-serif;font-size:16px;}#isoflow-0 p{margin:0;}#isoflow-0 .label{font-family:"trebuchet ms",verdana,arial,sans-serif;color:#333;}#isoflow-0 .cluster-label text{fill:rgb(8.5000000002, 5.7500000001, 0);}#isoflow-0 .cluster-label span{color:rgb(8.5000000002, 5.7500000001, 0);}#isoflow-0 .cluster-label span p{background-color:transparent;}#isoflow-0 .label text,#isoflow-0 span{fill:#333;color:#333;}#isoflow-0 .node rect,#isoflow-0 .node circle,#isoflow-0 .node ellipse,#isoflow-0 .node polygon,#isoflow-0 .node path{fill:#fff4dd;stroke:hsl(40.5882352941, 60%, 83.3333333333%);stroke-width:1px;}#isoflow-0 .rough-node .label text,#isoflow-0 .node .label text,#isoflow-0 .image-shape .label,#isoflow-0 .icon-shape .label{text-anchor:middle;}#isoflow-0 .node .katex path{fill:#000;stroke:#000;stroke-width:1px;}#isoflow-0 .rough-node .label,#isoflow-0 .node .label,#isoflow-0 .image-shape .label,#isoflow-0 .icon-shape .label{text-align:center;}#isoflow-0 .node.clickable{cursor:pointer;}#isoflow-0 .root .anchor path{fill:rgba(255, 255, 255, 0)!important;stroke-width:0;stroke:rgba(255, 255, 255, 0);}#isoflow-0 .arrowheadPath{fill:rgba(255, 255, 255, 0);}#isoflow-0 .edgePath .path{stroke:rgba(255, 255, 255, 0);stroke-width:2.0px;}#isoflow-0 .flowchart-link{stroke:rgba(255, 255, 255, 0);fill:none;}#isoflow-0 .edgeLabel{background-color:hsl(-79.4117647059, 100%, 93.3333333333%);text-align:center;}#isoflow-0 .edgeLabel p{background-color:hsl(-79.4117647059, 100%, 93.3333333333%);}#isoflow-0 .edgeLabel rect{opacity:0.5;background-color:hsl(-79.4117647059, 100%, 93.3333333333%);fill:hsl(-79.4117647059, 100%, 93.3333333333%);}#isoflow-0 .labelBkg{background-color:rgba(243.9999999999, 220.9999999998, 255, 0.5);}#isoflow-0 .cluster rect{fill:hsl(220.5882352941, 100%, 98.3333333333%);stroke:hsl(220.5882352941, 60%, 88.3333333333%);stroke-width:1px;}#isoflow-0 .cluster text{fill:rgb(8.5000000002, 5.7500000001, 0);}#isoflow-0 .cluster span{color:rgb(8.5000000002, 5.7500000001, 0);}#isoflow-0 div.mermaidTooltip{position:absolute;text-align:center;max-width:200px;padding:2px;font-family:"trebuchet ms",verdana,arial,sans-serif;font-size:12px;background:hsl(220.5882352941, 100%, 98.3333333333%);border:1px solid hsl(220.5882352941, 60%, 88.3333333333%);border-radius:2px;pointer-events:none;z-index:100;}#isoflow-0 .flowchartTitleText{text-anchor:middle;font-size:18px;fill:#333;}#isoflow-0 rect.text{fill:none;stroke-width:0;}#isoflow-0 .icon-shape,#isoflow-0 .image-shape{background-color:hsl(-79.4117647059, 100%, 93.3333333333%);text-align:center;}#isoflow-0 .icon-shape p,#isoflow-0 .image-shape p{background-color:hsl(-79.4117647059, 100%, 93.3333333333%);padding:2px;}#isoflow-0 .icon-shape .label rect,#isoflow-0 .image-shape .label rect{opacity:0.5;background-color:hsl(-79.4117647059, 100%, 93.3333333333%);fill:hsl(-79.4117647059, 100%, 93.3333333333%);}#isoflow-0 .label-icon{display:inline-block;height:1em;overflow:visible;vertical-align:-0.125em;}#isoflow-0 .node .label-icon path{fill:currentColor;stroke:revert;stroke-width:revert;}#isoflow-0 :root{--mermaid-font-family:"trebuchet ms",verdana,arial,sans-serif;}#isoflow-0 .flowchart-link{stroke:#333!important}#isoflow-0 .arrowMarkerPath{stroke:#333!important;fill:#333!important}</style><g><marker id="isoflow-0_flowchart-v2-pointEnd" class="marker flowchart-v2" viewBox="0 0 10 10" refX="5" refY="5" markerUnits="userSpaceOnUse" markerWidth="8" markerHeight="8" orient="auto"><path d="M 0 0 L 10 5 L 0 10 z" class="arrowMarkerPath" style="stroke-width: 1; stroke-dasharray: 1, 0;"></path></marker><marker id="isoflow-0_flowchart-v2-pointStart" class="marker flowchart-v2" viewBox="0 0 10 10" refX="4.5" refY="5" markerUnits="userSpaceOnUse" markerWidth="8" markerHeight="8" orient="auto"><path d="M 0 5 L 10 10 L 10 0 z" class="arrowMarkerPath" style="stroke-width: 1; stroke-dasharray: 1, 0;"></path></marker><marker id="isoflow-0_flowchart-v2-circleEnd" class="marker flowchart-v2" viewBox="0 0 10 10" refX="11" refY="5" markerUnits="userSpaceOnUse" markerWidth="11" markerHeight="11" orient="auto"><circle cx="5" cy="5" r="5" class="arrowMarkerPath" style="stroke-width: 1; stroke-dasharray: 1, 0;"></circle></marker><marker id="isoflow-0_flowchart-v2-circleStart" class="marker flowchart-v2" viewBox="0 0 10 10" refX="-1" refY="5" markerUnits="userSpaceOnUse" markerWidth="11" markerHeight="11" orient="auto"><circle cx="5" cy="5" r="5" class="arrowMarkerPath" style="stroke-width: 1; stroke-dasharray: 1, 0;"></circle></marker><marker id="isoflow-0_flowchart-v2-crossEnd" class="marker cross flowchart-v2" viewBox="0 0 11 11" refX="12" refY="5.2" markerUnits="userSpaceOnUse" markerWidth="11" markerHeight="11" orient="auto"><path d="M 1,1 l 9,9 M 10,1 l -9,9" class="arrowMarkerPath" style="stroke-width: 2; stroke-dasharray: 1, 0;"></path></marker><marker id="isoflow-0_flowchart-v2-crossStart" class="marker cross flowchart-v2" viewBox="0 0 11 11" refX="-1" refY="5.2" markerUnits="userSpaceOnUse" markerWidth="11" markerHeight="11" orient="auto"><path d="M 1,1 l 9,9 M 10,1 l -9,9" class="arrowMarkerPath" style="stroke-width: 2; stroke-dasharray: 1, 0;"></path></marker><g class="root"><g class="clusters"></g><g class="edgePaths"><path d="M67.398,47.5L67.315,51.583C67.232,55.667,67.065,63.833,66.982,71.417C66.898,79,66.898,86,66.898,89.5L66.898,93" id="L_Start_Input_0" class=" edge-thickness-normal edge-pattern-solid edge-thickness-normal edge-pattern-solid flowchart-link" style=";" data-edge="true" data-et="edge" data-id="L_Start_Input_0" data-points="W3sieCI6NjcuMzk4NDM3NSwieSI6NDcuNX0seyJ4Ijo2Ni44OTg0Mzc1LCJ5Ijo3Mn0seyJ4Ijo2Ni44OTg0Mzc1LCJ5Ijo5N31d" marker-end="url(#isoflow-0_flowchart-v2-pointEnd)"></path><path d="M66.898,151L66.898,155.167C66.898,159.333,66.898,167.667,66.898,175.333C66.898,183,66.898,190,66.898,193.5L66.898,197" id="L_Input_Process_0" class=" edge-thickness-normal edge-pattern-solid edge-thickness-normal edge-pattern-solid flowchart-link" style=";" data-edge="true" data-et="edge" data-id="L_Input_Process_0" data-points="W3sieCI6NjYuODk4NDM3NSwieSI6MTUxfSx7IngiOjY2Ljg5ODQzNzUsInkiOjE3Nn0seyJ4Ijo2Ni44OTg0Mzc1LCJ5IjoyMDF9XQ==" marker-end="url(#isoflow-0_flowchart-v2-pointEnd)"></path><path d="M66.898,255L66.898,259.167C66.898,263.333,66.898,271.667,66.898,279.333C66.898,287,66.898,294,66.898,297.5L66.898,301" id="L_Process_Output_0" class=" edge-thickness-normal edge-pattern-solid edge-thickness-normal edge-pattern-solid flowchart-link" style=";" data-edge="true" data-et="edge" data-id="L_Process_Output_0" data-points="W3sieCI6NjYuODk4NDM3NSwieSI6MjU1fSx7IngiOjY2Ljg5ODQzNzUsInkiOjI4MH0seyJ4Ijo2Ni44OTg0Mzc1LCJ5IjozMDV9XQ==" marker-end="url(#isoflow-0_flowchart-v2-pointEnd)"></path><path d="M66.898,359L66.898,363.167C66.898,367.333,66.898,375.667,66.969,383.417C67.039,391.167,67.179,398.334,67.25,401.917L67.32,405.501" id="L_Output_End_0" class=" edge-thickness-normal edge-pattern-solid edge-thickness-normal edge-pattern-solid flowchart-link" style=";" data-edge="true" data-et="edge" data-id="L_Output_End_0" data-points="W3sieCI6NjYuODk4NDM3NSwieSI6MzU5fSx7IngiOjY2Ljg5ODQzNzUsInkiOjM4NH0seyJ4Ijo2Ny4zOTg0Mzc1LCJ5Ijo0MDkuNX1d" marker-end="url(#isoflow-0_flowchart-v2-pointEnd)"></path></g><g class="edgeLabels"><g class="edgeLabel"><g class="label" data-id="L_Start_Input_0" transform="translate(0, 0)"><foreignObject width="0" height="0"><div xmlns="http://www.w3.org/1999/xhtml" class="labelBkg" style="display: table-cell; white-space: nowrap; line-height: 1.5; max-width: 200px; text-align: center;"><span class="edgeLabel "></span></div></foreignObject></g></g><g class="edgeLabel"><g class="label" data-id="L_Input_Process_0" transform="translate(0, 0)"><foreignObject width="0" height="0"><div xmlns="http://www.w3.org/1999/xhtml" class="labelBkg" style="display: table-cell; white-space: nowrap; line-height: 1.5; max-width: 200px; text-align: center;"><span class="edgeLabel "></span></div></foreignObject></g></g><g class="edgeLabel"><g class="label" data-id="L_Process_Output_0" transform="translate(0, 0)"><foreignObject width="0" height="0"><div xmlns="http://www.w3.org/1999/xhtml" class="labelBkg" style="display: table-cell; white-space: nowrap; line-height: 1.5; max-width: 200px; text-align: center;"><span class="edgeLabel "></span></div></foreignObject></g></g><g class="edgeLabel"><g class="label" data-id="L_Output_End_0" transform="translate(0, 0)"><foreignObject width="0" height="0"><div xmlns="http://www.w3.org/1999/xhtml" class="labelBkg" style="display: table-cell; white-space: nowrap; line-height: 1.5; max-width: 200px; text-align: center;"><span class="edgeLabel "></span></div></foreignObject></g></g></g><g class="nodes"><g class="node default  " id="flowchart-Start-0" transform="translate(66.8984375, 27.5)"><g class="basic label-container outer-path"><path d="M-9.7734375 -19.5 C-4.253355181277007 -19.5, 1.2667271374459865 -19.5, 9.7734375 -19.5 C9.7734375 -19.5, 9.773437499999998 -19.5, 9.773437499999998 -19.5 C10.095720895196848 -19.48966499880261, 10.418004290393698 -19.479329997605223, 11.0228067896239 -19.45993515863156 C11.490938990944999 -19.414775008181454, 11.959071192266098 -19.369614857731353, 12.267042152847864 -19.3399052695533 C12.562848155374684 -19.292081649074575, 12.858654157901505 -19.244258028595848, 13.501030759676757 -19.140403561325776 C13.794254935968771 -19.073477056553696, 14.087479112260786 -19.00655055178162, 14.71970188623539 -18.862249829261074 C14.975214104785847 -18.786415144006302, 15.230726323336302 -18.710580458751533, 15.918047751460602 -18.50658706670804 C16.231944040737027 -18.391070330628825, 16.54584033001345 -18.27555359454961, 17.091144095147794 -18.074876768247425 C17.38636155819889 -17.944192754669597, 17.681579021249988 -17.81350874109177, 18.23417041279238 -17.568892924097174 C18.464947142296683 -17.44849685213433, 18.695723871800983 -17.328100780171486, 19.342429764076783 -16.990714730406097 C19.64098441590661 -16.809729145964976, 19.93953906773643 -16.628743561523855, 20.411368073605697 -16.342718045390892 C20.761290089822275 -16.09862759475815, 21.111212106038856 -15.854537144125405, 21.436592844578712 -15.627565626425154 C21.785892130485617 -15.34900874115877, 22.135191416392523 -15.070451855892385, 22.41389120850187 -14.848196188198123 C22.747108607002044 -14.545576963329504, 23.08032600550222 -14.242957738460884, 23.339247236767985 -14.007812326905688 C23.65921458805914 -13.677419766889477, 23.979181939350294 -13.347027206873266, 24.208858442968648 -13.10986736009568 C24.47158547328194 -12.801253240698161, 24.734312503595234 -12.492639121300641, 25.019151408126582 -12.158051136245305 C25.182477321940667 -11.939209291031275, 25.34580323575475 -11.720367445817248, 25.766796464640635 -11.156274872382312 C25.90527343191774 -10.9435370643724, 26.043750399194842 -10.730799256362486, 26.448721378604247 -10.108655082055241 C26.664037167869147 -9.726340095127503, 26.879352957134046 -9.344025108199764, 27.0621239742735 -9.019496659696287 C27.178496266875918 -8.777847104139187, 27.29486855947834 -8.53619754858209, 27.60448364880834 -7.893275190886684 C27.759555407408325 -7.5102449490362355, 27.914627166008305 -7.127214707185787, 28.073571729970325 -6.734618561215508 C28.17160896327419 -6.439346034616149, 28.26964619657805 -6.144073508016789, 28.46746063421488 -5.548287939305138 C28.53911779398651 -5.275028132686415, 28.610774953758142 -5.001768326067692, 28.78453178754556 -4.339158212148133 C28.862725343122975 -3.937650830471931, 28.940918898700392 -3.536143448795728, 29.023482276581777 -3.1121979531509023 C29.063864431281598 -2.799001935657498, 29.104246585981418 -2.4858059181640937, 29.183330202509367 -1.872449005199798 C29.20075737307163 -1.6010067567336086, 29.2181845436339 -1.329564508267419, 29.263418715913414 -0.6250057626472757 C29.263418715913414 -0.3678527211217794, 29.263418715913414 -0.11069967959628313, 29.263418715913414 0.625005762647271 C29.232297478960515 1.1097441487990234, 29.201176242007612 1.5944825349507759, 29.183330202509367 1.8724490051997846 C29.140305699187266 2.20613855681683, 29.09728119586517 2.539828108433875, 29.023482276581777 3.1121979531508885 C28.962878065116794 3.423387770318955, 28.90227385365181 3.734577587487021, 28.78453178754556 4.339158212148129 C28.718632096982788 4.590462293370544, 28.652732406420014 4.84176637459296, 28.467460634214884 5.548287939305125 C28.36972965123084 5.842638088735548, 28.271998668246802 6.13698823816597, 28.07357172997033 6.734618561215495 C27.964887665192144 7.003070302481059, 27.85620360041396 7.271522043746623, 27.604483648808344 7.893275190886679 C27.418443679554944 8.279591167659023, 27.232403710301543 8.665907144431367, 27.062123974273504 9.019496659696284 C26.83573543852082 9.421472429250244, 26.60934690276814 9.823448198804202, 26.44872137860425 10.108655082055236 C26.254858153210698 10.406481055824775, 26.06099492781715 10.704307029594315, 25.76679646464064 11.156274872382301 C25.478328757922135 11.542795319436388, 25.189861051203632 11.929315766490474, 25.019151408126582 12.158051136245302 C24.783743221039366 12.43457498790326, 24.548335033952146 12.711098839561217, 24.20885844296866 13.10986736009567 C24.00205961775044 13.32340412563279, 23.79526079253222 13.53694089116991, 23.33924723676799 14.007812326905684 C23.092556567231494 14.231850265901286, 22.845865897695 14.455888204896887, 22.413891208501887 14.848196188198111 C22.20341806873599 15.016042916235943, 21.992944928970086 15.183889644273775, 21.436592844578715 15.627565626425152 C21.034021294394833 15.908382112791896, 20.63144974421095 16.18919859915864, 20.411368073605708 16.34271804539089 C20.134897450722203 16.51031616170459, 19.858426827838695 16.677914278018292, 19.342429764076787 16.990714730406093 C18.987667211107418 17.17579412705395, 18.632904658138052 17.360873523701812, 18.234170412792388 17.56889292409717 C17.86277514951045 17.733298590103033, 17.49137988622852 17.8977042561089, 17.091144095147804 18.07487676824742 C16.83671703569561 18.168508278023783, 16.582289976243413 18.262139787800148, 15.918047751460616 18.506587066708033 C15.640380578606537 18.588997226106393, 15.36271340575246 18.67140738550475, 14.719701886235413 18.86224982926107 C14.456016137692693 18.922434380655627, 14.192330389149971 18.982618932050187, 13.501030759676766 19.140403561325773 C13.180822987126819 19.192172270743285, 12.86061521457687 19.243940980160797, 12.267042152847878 19.3399052695533 C11.798295097348625 19.3851247342465, 11.329548041849373 19.430344198939697, 11.0228067896239 19.45993515863156 C10.531961119397224 19.47567562390259, 10.04111544917055 19.491416089173622, 9.773437500000004 19.5 C9.773437500000002 19.5, 9.773437500000002 19.5, 9.7734375 19.5 C4.246351573206568 19.5, -1.2807343535868636 19.5, -9.773437499999996 19.5 C-10.045342172680183 19.491280546377485, -10.317246845360371 19.48256109275497, -11.022806789623893 19.45993515863156 C-11.306765499945863 19.432542003357113, -11.590724210267833 19.405148848082664, -12.267042152847871 19.3399052695533 C-12.625236466206074 19.28199519080793, -12.983430779564278 19.224085112062564, -13.501030759676759 19.140403561325773 C-13.758673800188612 19.081598218606906, -14.016316840700467 19.022792875888037, -14.719701886235388 18.862249829261074 C-15.031800036708017 18.76962073643742, -15.343898187180647 18.676991643613768, -15.918047751460593 18.506587066708043 C-16.28082114740363 18.373083103560496, -16.643594543346662 18.239579140412946, -17.091144095147797 18.074876768247425 C-17.3828039698259 17.94576759351021, -17.674463844504007 17.816658418773, -18.23417041279238 17.568892924097174 C-18.66593673417539 17.343640710791185, -19.097703055558398 17.1183884974852, -19.34242976407678 16.990714730406097 C-19.768464259615843 16.732450115553718, -20.194498755154907 16.474185500701342, -20.411368073605686 16.3427180453909 C-20.66729628134494 16.16419360662555, -20.92322448908419 15.9856691678602, -21.436592844578712 15.627565626425156 C-21.78897101626523 15.346553411682125, -22.141349187951743 15.065541196939092, -22.41389120850187 14.848196188198125 C-22.692593247036182 14.595086370853116, -22.971295285570495 14.341976553508108, -23.339247236767974 14.007812326905697 C-23.565696018613416 13.773985367859531, -23.792144800458853 13.540158408813367, -24.208858442968655 13.109867360095677 C-24.49809495491891 12.770113695135143, -24.787331466869162 12.43036003017461, -25.01915140812658 12.158051136245307 C-25.23528596378691 11.868450521923553, -25.45142051944724 11.578849907601798, -25.766796464640635 11.156274872382316 C-25.927190518612708 10.909866533647092, -26.087584572584785 10.663458194911868, -26.448721378604244 10.108655082055249 C-26.591024887090306 9.85598079294547, -26.733328395576365 9.603306503835691, -27.0621239742735 9.019496659696289 C-27.193279164345984 8.747150101239265, -27.324434354418468 8.474803542782242, -27.60448364880834 7.893275190886686 C-27.718270304138784 7.612219952305173, -27.832056959469224 7.331164713723659, -28.073571729970325 6.73461856121551 C-28.226554773624805 6.273858008266089, -28.37953781727929 5.813097455316669, -28.46746063421488 5.5482879393051325 C-28.581734832773456 5.11251089345034, -28.696009031332032 4.676733847595547, -28.784531787545557 4.339158212148136 C-28.873410797704942 3.882783279565154, -28.962289807864327 3.4264083469821722, -29.023482276581777 3.112197953150904 C-29.085207770561325 2.633467210922975, -29.146933264540877 2.154736468695046, -29.183330202509364 1.872449005199809 C-29.20353954708782 1.5576721507010138, -29.223748891666276 1.2428952962022186, -29.263418715913414 0.6250057626472781 C-29.263418715913414 0.21249004526741344, -29.263418715913414 -0.20002567211245126, -29.263418715913414 -0.6250057626472687 C-29.241952757981316 -0.9593553844490481, -29.220486800049223 -1.2937050062508275, -29.183330202509367 -1.8724490051997822 C-29.14698127630089 -2.1543640989653525, -29.11063235009242 -2.4362791927309226, -29.023482276581777 -3.112197953150895 C-28.935227329138765 -3.565368455581012, -28.846972381695753 -4.018538958011129, -28.78453178754556 -4.339158212148126 C-28.676809426736913 -4.749950261078005, -28.569087065928265 -5.160742310007882, -28.467460634214884 -5.548287939305123 C-28.313522772360304 -6.011924252543623, -28.15958491050572 -6.475560565782123, -28.073571729970332 -6.734618561215485 C-27.960011418722807 -7.015114725536126, -27.846451107475286 -7.295610889856766, -27.604483648808344 -7.893275190886676 C-27.40612071127655 -8.30518007495839, -27.207757773744756 -8.717084959030103, -27.062123974273504 -9.019496659696282 C-26.87101628317739 -9.35882771698959, -26.679908592081272 -9.698158774282899, -26.448721378604247 -10.108655082055243 C-26.217778559676546 -10.463445268758248, -25.986835740748848 -10.818235455461254, -25.76679646464064 -11.156274872382308 C-25.506417453149425 -11.505159026764604, -25.24603844165821 -11.8540431811469, -25.019151408126586 -12.158051136245302 C-24.723172773834925 -12.505724481745682, -24.42719413954326 -12.853397827246065, -24.208858442968662 -13.10986736009567 C-23.91073790140088 -13.41770129541606, -23.6126173598331 -13.725535230736453, -23.339247236767996 -14.007812326905677 C-23.08044382362268 -14.242850739161177, -22.82164041047736 -14.477889151416678, -22.413891208501887 -14.848196188198107 C-22.101116141994485 -15.097625980443688, -21.78834107548708 -15.347055772689266, -21.43659284457872 -15.627565626425149 C-21.055894319185498 -15.89312443756591, -20.675195793792277 -16.158683248706673, -20.41136807360571 -16.342718045390885 C-20.064672854673194 -16.55288672451503, -19.717977635740677 -16.76305540363918, -19.34242976407679 -16.99071473040609 C-19.049675065310673 -17.14344466923404, -18.756920366544556 -17.29617460806199, -18.234170412792388 -17.56889292409717 C-17.96240991036903 -17.689193237031112, -17.690649407945674 -17.80949354996505, -17.091144095147804 -18.07487676824742 C-16.800157226012928 -18.181962625942187, -16.509170356878055 -18.289048483636954, -15.918047751460618 -18.506587066708033 C-15.62757654208751 -18.592797396935477, -15.337105332714405 -18.679007727162926, -14.719701886235413 -18.862249829261067 C-14.467451084203184 -18.919824428734607, -14.215200282170954 -18.977399028208144, -13.501030759676768 -19.140403561325773 C-13.231102169582885 -19.18404352244467, -12.961173579489 -19.22768348356357, -12.26704215284788 -19.3399052695533 C-11.987821708384908 -19.366841330018925, -11.708601263921938 -19.393777390484555, -11.022806789623903 -19.45993515863156 C-10.537700727283987 -19.47549156584913, -10.05259466494407 -19.491047973066703, -9.773437500000005 -19.5 C-9.773437500000004 -19.5, -9.773437500000002 -19.5, -9.7734375 -19.5" stroke="none" stroke-width="0" fill="#fff4dd" style=""></path><path d="M-9.7734375 -19.5 C-2.1482065199910245 -19.5, 5.477024460017951 -19.5, 9.7734375 -19.5 M-9.7734375 -19.5 C-2.120223712916448 -19.5, 5.532990074167104 -19.5, 9.7734375 -19.5 M9.7734375 -19.5 C9.7734375 -19.5, 9.773437499999998 -19.5, 9.773437499999998 -19.5 M9.7734375 -19.5 C9.7734375 -19.5, 9.773437499999998 -19.5, 9.773437499999998 -19.5 M9.773437499999998 -19.5 C10.206012884765617 -19.486128149367474, 10.638588269531237 -19.47225629873495, 11.0228067896239 -19.45993515863156 M9.773437499999998 -19.5 C10.079805063186575 -19.490175388556892, 10.386172626373149 -19.480350777113784, 11.0228067896239 -19.45993515863156 M11.0228067896239 -19.45993515863156 C11.41783706026339 -19.421827063516375, 11.812867330902877 -19.383718968401194, 12.267042152847864 -19.3399052695533 M11.0228067896239 -19.45993515863156 C11.27550202773968 -19.435557952921016, 11.52819726585546 -19.411180747210476, 12.267042152847864 -19.3399052695533 M12.267042152847864 -19.3399052695533 C12.647572280475881 -19.278384109573615, 13.028102408103896 -19.21686294959393, 13.501030759676757 -19.140403561325776 M12.267042152847864 -19.3399052695533 C12.73734340200599 -19.26387061083007, 13.207644651164118 -19.18783595210685, 13.501030759676757 -19.140403561325776 M13.501030759676757 -19.140403561325776 C13.759765044506926 -19.081349149212286, 14.018499329337095 -19.0222947370988, 14.71970188623539 -18.862249829261074 M13.501030759676757 -19.140403561325776 C13.76177429035218 -19.080890551959662, 14.022517821027604 -19.021377542593548, 14.71970188623539 -18.862249829261074 M14.71970188623539 -18.862249829261074 C15.046263972102576 -18.765327916335064, 15.37282605796976 -18.66840600340905, 15.918047751460602 -18.50658706670804 M14.71970188623539 -18.862249829261074 C15.114289547837622 -18.745138282530434, 15.508877209439854 -18.628026735799793, 15.918047751460602 -18.50658706670804 M15.918047751460602 -18.50658706670804 C16.382072053645544 -18.33582183411035, 16.846096355830486 -18.165056601512664, 17.091144095147794 -18.074876768247425 M15.918047751460602 -18.50658706670804 C16.33155499651101 -18.354412578110416, 16.74506224156142 -18.202238089512797, 17.091144095147794 -18.074876768247425 M17.091144095147794 -18.074876768247425 C17.455272014893993 -17.913688139646744, 17.81939993464019 -17.752499511046064, 18.23417041279238 -17.568892924097174 M17.091144095147794 -18.074876768247425 C17.333809450582162 -17.96745601380864, 17.576474806016527 -17.860035259369855, 18.23417041279238 -17.568892924097174 M18.23417041279238 -17.568892924097174 C18.456548001293026 -17.45287867861603, 18.67892558979367 -17.33686443313489, 19.342429764076783 -16.990714730406097 M18.23417041279238 -17.568892924097174 C18.578895833636935 -17.38904989284974, 18.923621254481493 -17.209206861602308, 19.342429764076783 -16.990714730406097 M19.342429764076783 -16.990714730406097 C19.74737814425594 -16.745232642600662, 20.152326524435093 -16.499750554795227, 20.411368073605697 -16.342718045390892 M19.342429764076783 -16.990714730406097 C19.743153161086127 -16.74779385222696, 20.143876558095474 -16.50487297404782, 20.411368073605697 -16.342718045390892 M20.411368073605697 -16.342718045390892 C20.662997902420827 -16.167191969689185, 20.914627731235957 -15.991665893987479, 21.436592844578712 -15.627565626425154 M20.411368073605697 -16.342718045390892 C20.749965457151774 -16.106527168273644, 21.088562840697847 -15.870336291156397, 21.436592844578712 -15.627565626425154 M21.436592844578712 -15.627565626425154 C21.68939974967505 -15.425958847085104, 21.94220665477139 -15.224352067745054, 22.41389120850187 -14.848196188198123 M21.436592844578712 -15.627565626425154 C21.810982624314818 -15.328999740016064, 22.185372404050927 -15.030433853606974, 22.41389120850187 -14.848196188198123 M22.41389120850187 -14.848196188198123 C22.617347722661968 -14.6634223652023, 22.820804236822067 -14.478648542206475, 23.339247236767985 -14.007812326905688 M22.41389120850187 -14.848196188198123 C22.679357063776134 -14.607107122279674, 22.944822919050395 -14.366018056361225, 23.339247236767985 -14.007812326905688 M23.339247236767985 -14.007812326905688 C23.633122352678978 -13.704362142131858, 23.926997468589974 -13.400911957358026, 24.208858442968648 -13.10986736009568 M23.339247236767985 -14.007812326905688 C23.678900465238915 -13.657092482460783, 24.018553693709848 -13.30637263801588, 24.208858442968648 -13.10986736009568 M24.208858442968648 -13.10986736009568 C24.383500671050225 -12.90472266156677, 24.5581428991318 -12.699577963037859, 25.019151408126582 -12.158051136245305 M24.208858442968648 -13.10986736009568 C24.50686254070437 -12.759814789981775, 24.804866638440092 -12.409762219867869, 25.019151408126582 -12.158051136245305 M25.019151408126582 -12.158051136245305 C25.27667007898255 -11.812999577731846, 25.53418874983852 -11.467948019218387, 25.766796464640635 -11.156274872382312 M25.019151408126582 -12.158051136245305 C25.30486872199245 -11.77521596504781, 25.590586035858315 -11.392380793850316, 25.766796464640635 -11.156274872382312 M25.766796464640635 -11.156274872382312 C26.027941535838245 -10.755085915752424, 26.289086607035856 -10.353896959122535, 26.448721378604247 -10.108655082055241 M25.766796464640635 -11.156274872382312 C25.978625770915443 -10.830848173810946, 26.190455077190247 -10.505421475239578, 26.448721378604247 -10.108655082055241 M26.448721378604247 -10.108655082055241 C26.59442007442578 -9.849952294031333, 26.740118770247314 -9.591249506007426, 27.0621239742735 -9.019496659696287 M26.448721378604247 -10.108655082055241 C26.693838119677313 -9.673425487518507, 26.938954860750382 -9.238195892981773, 27.0621239742735 -9.019496659696287 M27.0621239742735 -9.019496659696287 C27.246509892866463 -8.636615354511358, 27.430895811459422 -8.25373404932643, 27.60448364880834 -7.893275190886684 M27.0621239742735 -9.019496659696287 C27.181279618401327 -8.772067415142496, 27.300435262529156 -8.524638170588705, 27.60448364880834 -7.893275190886684 M27.60448364880834 -7.893275190886684 C27.7083046518547 -7.636835306119631, 27.812125654901063 -7.380395421352578, 28.073571729970325 -6.734618561215508 M27.60448364880834 -7.893275190886684 C27.698975527456323 -7.659878423749977, 27.793467406104305 -7.42648165661327, 28.073571729970325 -6.734618561215508 M28.073571729970325 -6.734618561215508 C28.216796314879254 -6.303248931208442, 28.36002089978818 -5.871879301201376, 28.46746063421488 -5.548287939305138 M28.073571729970325 -6.734618561215508 C28.15569560927964 -6.487274521399085, 28.237819488588958 -6.239930481582662, 28.46746063421488 -5.548287939305138 M28.46746063421488 -5.548287939305138 C28.56522434715518 -5.175472530802564, 28.66298806009548 -4.80265712229999, 28.78453178754556 -4.339158212148133 M28.46746063421488 -5.548287939305138 C28.538373508806455 -5.277866414653201, 28.609286383398032 -5.007444890001265, 28.78453178754556 -4.339158212148133 M28.78453178754556 -4.339158212148133 C28.862213471906383 -3.9402791809851108, 28.939895156267205 -3.5414001498220884, 29.023482276581777 -3.1121979531509023 M28.78453178754556 -4.339158212148133 C28.860956253525 -3.946734731660312, 28.937380719504443 -3.5543112511724915, 29.023482276581777 -3.1121979531509023 M29.023482276581777 -3.1121979531509023 C29.062010564235166 -2.8133801623821673, 29.100538851888555 -2.5145623716134318, 29.183330202509367 -1.872449005199798 M29.023482276581777 -3.1121979531509023 C29.080723837429428 -2.668243710841255, 29.137965398277075 -2.2242894685316084, 29.183330202509367 -1.872449005199798 M29.183330202509367 -1.872449005199798 C29.21033645929859 -1.4518047566495518, 29.23734271608781 -1.0311605080993056, 29.263418715913414 -0.6250057626472757 M29.183330202509367 -1.872449005199798 C29.21532753305928 -1.3740647541045523, 29.24732486360919 -0.8756805030093066, 29.263418715913414 -0.6250057626472757 M29.263418715913414 -0.6250057626472757 C29.263418715913414 -0.2945993852586021, 29.263418715913414 0.03580699213007155, 29.263418715913414 0.625005762647271 M29.263418715913414 -0.6250057626472757 C29.263418715913414 -0.23702531390453546, 29.263418715913414 0.15095513483820477, 29.263418715913414 0.625005762647271 M29.263418715913414 0.625005762647271 C29.245358033708197 0.9063154663138153, 29.22729735150298 1.1876251699803597, 29.183330202509367 1.8724490051997846 M29.263418715913414 0.625005762647271 C29.23528713481809 1.063177845610518, 29.207155553722764 1.5013499285737653, 29.183330202509367 1.8724490051997846 M29.183330202509367 1.8724490051997846 C29.148090736590504 2.1457593440468368, 29.112851270671644 2.419069682893889, 29.023482276581777 3.1121979531508885 M29.183330202509367 1.8724490051997846 C29.12527429334982 2.3227191722052547, 29.067218384190273 2.7729893392107248, 29.023482276581777 3.1121979531508885 M29.023482276581777 3.1121979531508885 C28.97362046236453 3.3682278308582987, 28.923758648147277 3.6242577085657084, 28.78453178754556 4.339158212148129 M29.023482276581777 3.1121979531508885 C28.96250420999562 3.425307437351888, 28.901526143409455 3.738416921552888, 28.78453178754556 4.339158212148129 M28.78453178754556 4.339158212148129 C28.688273524877903 4.70623268629485, 28.592015262210243 5.073307160441571, 28.467460634214884 5.548287939305125 M28.78453178754556 4.339158212148129 C28.719021281880625 4.588978162681283, 28.65351077621569 4.8387981132144375, 28.467460634214884 5.548287939305125 M28.467460634214884 5.548287939305125 C28.35920292246739 5.87434291856461, 28.250945210719895 6.200397897824094, 28.07357172997033 6.734618561215495 M28.467460634214884 5.548287939305125 C28.37999445835881 5.811722125141029, 28.292528282502733 6.075156310976932, 28.07357172997033 6.734618561215495 M28.07357172997033 6.734618561215495 C27.94891713227911 7.0425178275455025, 27.824262534587888 7.350417093875511, 27.604483648808344 7.893275190886679 M28.07357172997033 6.734618561215495 C27.9247238915839 7.10227559980716, 27.775876053197468 7.4699326383988245, 27.604483648808344 7.893275190886679 M27.604483648808344 7.893275190886679 C27.449529986197586 8.215039786775172, 27.294576323586824 8.536804382663664, 27.062123974273504 9.019496659696284 M27.604483648808344 7.893275190886679 C27.454899810805827 8.203889231080316, 27.30531597280331 8.514503271273952, 27.062123974273504 9.019496659696284 M27.062123974273504 9.019496659696284 C26.817869000921892 9.45319609838013, 26.57361402757028 9.88689553706398, 26.44872137860425 10.108655082055236 M27.062123974273504 9.019496659696284 C26.92037331300626 9.271189312587202, 26.778622651739017 9.522881965478122, 26.44872137860425 10.108655082055236 M26.44872137860425 10.108655082055236 C26.252251936389687 10.410484904729058, 26.055782494175123 10.71231472740288, 25.76679646464064 11.156274872382301 M26.44872137860425 10.108655082055236 C26.203267745554125 10.485737775949465, 25.957814112504 10.862820469843694, 25.76679646464064 11.156274872382301 M25.76679646464064 11.156274872382301 C25.473989303688768 11.548609792776688, 25.181182142736894 11.940944713171072, 25.019151408126582 12.158051136245302 M25.76679646464064 11.156274872382301 C25.5941743386352 11.387572795030398, 25.421552212629756 11.618870717678492, 25.019151408126582 12.158051136245302 M25.019151408126582 12.158051136245302 C24.697174097505833 12.53626400632842, 24.375196786885084 12.914476876411538, 24.20885844296866 13.10986736009567 M25.019151408126582 12.158051136245302 C24.74423696631594 12.480981282670971, 24.469322524505298 12.80391142909664, 24.20885844296866 13.10986736009567 M24.20885844296866 13.10986736009567 C23.868046824231037 13.461783337596543, 23.52723520549341 13.813699315097416, 23.33924723676799 14.007812326905684 M24.20885844296866 13.10986736009567 C23.96168660046558 13.36509258066577, 23.7145147579625 13.62031780123587, 23.33924723676799 14.007812326905684 M23.33924723676799 14.007812326905684 C23.102831442685524 14.222518895872245, 22.866415648603056 14.437225464838805, 22.413891208501887 14.848196188198111 M23.33924723676799 14.007812326905684 C23.055376522134917 14.265616199127912, 22.771505807501843 14.52342007135014, 22.413891208501887 14.848196188198111 M22.413891208501887 14.848196188198111 C22.040547044677822 15.145928223742356, 21.667202880853758 15.443660259286599, 21.436592844578715 15.627565626425152 M22.413891208501887 14.848196188198111 C22.077220334453433 15.116682251063533, 21.74054946040498 15.385168313928954, 21.436592844578715 15.627565626425152 M21.436592844578715 15.627565626425152 C21.230356136590537 15.771427426074508, 21.024119428602358 15.915289225723864, 20.411368073605708 16.34271804539089 M21.436592844578715 15.627565626425152 C21.201537134365378 15.791530314472281, 20.966481424152036 15.955495002519411, 20.411368073605708 16.34271804539089 M20.411368073605708 16.34271804539089 C20.090297828786255 16.537352714618635, 19.769227583966803 16.731987383846377, 19.342429764076787 16.990714730406093 M20.411368073605708 16.34271804539089 C20.06563710551845 16.552302189986072, 19.719906137431195 16.761886334581256, 19.342429764076787 16.990714730406093 M19.342429764076787 16.990714730406093 C18.970571325827695 17.184713039453946, 18.598712887578607 17.3787113485018, 18.234170412792388 17.56889292409717 M19.342429764076787 16.990714730406093 C19.09469157505625 17.119959584934225, 18.846953386035715 17.249204439462353, 18.234170412792388 17.56889292409717 M18.234170412792388 17.56889292409717 C17.964637757484013 17.688207035200044, 17.69510510217564 17.80752114630292, 17.091144095147804 18.07487676824742 M18.234170412792388 17.56889292409717 C17.89440677191206 17.71929620918458, 17.554643131031735 17.869699494271995, 17.091144095147804 18.07487676824742 M17.091144095147804 18.07487676824742 C16.659110703648082 18.23386904999221, 16.22707731214836 18.392861331737, 15.918047751460616 18.506587066708033 M17.091144095147804 18.07487676824742 C16.823971986899476 18.1731985737947, 16.556799878651148 18.27152037934198, 15.918047751460616 18.506587066708033 M15.918047751460616 18.506587066708033 C15.594540849041843 18.60260221722354, 15.271033946623069 18.698617367739054, 14.719701886235413 18.86224982926107 M15.918047751460616 18.506587066708033 C15.560440583088727 18.61272299716248, 15.20283341471684 18.718858927616925, 14.719701886235413 18.86224982926107 M14.719701886235413 18.86224982926107 C14.320960166508568 18.953260024755828, 13.922218446781724 19.044270220250585, 13.501030759676766 19.140403561325773 M14.719701886235413 18.86224982926107 C14.355627336267208 18.945347469482844, 13.991552786299001 19.028445109704617, 13.501030759676766 19.140403561325773 M13.501030759676766 19.140403561325773 C13.059613105444452 19.21176854441702, 12.61819545121214 19.283133527508266, 12.267042152847878 19.3399052695533 M13.501030759676766 19.140403561325773 C13.009581189368511 19.219857316604873, 12.518131619060256 19.299311071883974, 12.267042152847878 19.3399052695533 M12.267042152847878 19.3399052695533 C11.979371196347474 19.36765654075195, 11.69170023984707 19.3954078119506, 11.0228067896239 19.45993515863156 M12.267042152847878 19.3399052695533 C11.888056232859174 19.376465585457353, 11.50907031287047 19.41302590136141, 11.0228067896239 19.45993515863156 M11.0228067896239 19.45993515863156 C10.656905571357878 19.471668898517834, 10.291004353091855 19.483402638404108, 9.773437500000004 19.5 M11.0228067896239 19.45993515863156 C10.528632527166913 19.475782365376705, 10.034458264709926 19.49162957212185, 9.773437500000004 19.5 M9.773437500000004 19.5 C9.773437500000002 19.5, 9.773437500000002 19.5, 9.7734375 19.5 M9.773437500000004 19.5 C9.773437500000002 19.5, 9.773437500000002 19.5, 9.7734375 19.5 M9.7734375 19.5 C5.025033460312733 19.5, 0.2766294206254667 19.5, -9.773437499999996 19.5 M9.7734375 19.5 C3.1263807796830614 19.5, -3.5206759406338772 19.5, -9.773437499999996 19.5 M-9.773437499999996 19.5 C-10.204232191908257 19.4861852527215, -10.635026883816519 19.472370505443003, -11.022806789623893 19.45993515863156 M-9.773437499999996 19.5 C-10.07339880349147 19.490380824836286, -10.373360106982943 19.480761649672573, -11.022806789623893 19.45993515863156 M-11.022806789623893 19.45993515863156 C-11.385063416511542 19.424988697513044, -11.747320043399194 19.390042236394528, -12.267042152847871 19.3399052695533 M-11.022806789623893 19.45993515863156 C-11.450897017590691 19.418637809193427, -11.878987245557488 19.377340459755295, -12.267042152847871 19.3399052695533 M-12.267042152847871 19.3399052695533 C-12.626280774611345 19.281826355123698, -12.98551939637482 19.2237474406941, -13.501030759676759 19.140403561325773 M-12.267042152847871 19.3399052695533 C-12.756506408443474 19.260772484560594, -13.245970664039076 19.18163969956789, -13.501030759676759 19.140403561325773 M-13.501030759676759 19.140403561325773 C-13.855295239097801 19.059545005689696, -14.209559718518841 18.978686450053623, -14.719701886235388 18.862249829261074 M-13.501030759676759 19.140403561325773 C-13.84518322141995 19.061853007737582, -14.18933568316314 18.983302454149396, -14.719701886235388 18.862249829261074 M-14.719701886235388 18.862249829261074 C-14.988379567120216 18.782507703892385, -15.257057248005045 18.702765578523692, -15.918047751460593 18.506587066708043 M-14.719701886235388 18.862249829261074 C-14.993386829307742 18.781021574758782, -15.267071772380094 18.69979332025649, -15.918047751460593 18.506587066708043 M-15.918047751460593 18.506587066708043 C-16.335109834105836 18.353104365014964, -16.752171916751077 18.199621663321885, -17.091144095147797 18.074876768247425 M-15.918047751460593 18.506587066708043 C-16.306907764012426 18.363482987506416, -16.69576777656426 18.22037890830479, -17.091144095147797 18.074876768247425 M-17.091144095147797 18.074876768247425 C-17.370621923298682 17.951160224140242, -17.650099751449563 17.82744368003306, -18.23417041279238 17.568892924097174 M-17.091144095147797 18.074876768247425 C-17.346245718732508 17.96195084680727, -17.60134734231722 17.849024925367114, -18.23417041279238 17.568892924097174 M-18.23417041279238 17.568892924097174 C-18.513738829349972 17.423042260251197, -18.793307245907563 17.277191596405217, -19.34242976407678 16.990714730406097 M-18.23417041279238 17.568892924097174 C-18.647726517119732 17.353140969364922, -19.061282621447088 17.137389014632667, -19.34242976407678 16.990714730406097 M-19.34242976407678 16.990714730406097 C-19.708066860170913 16.769063374031752, -20.073703956265046 16.547412017657408, -20.411368073605686 16.3427180453909 M-19.34242976407678 16.990714730406097 C-19.584738298096084 16.84382587312059, -19.82704683211539 16.696937015835083, -20.411368073605686 16.3427180453909 M-20.411368073605686 16.3427180453909 C-20.616718394545245 16.199474550975584, -20.8220687154848 16.05623105656027, -21.436592844578712 15.627565626425156 M-20.411368073605686 16.3427180453909 C-20.650111910820854 16.176180679603743, -20.88885574803602 16.009643313816582, -21.436592844578712 15.627565626425156 M-21.436592844578712 15.627565626425156 C-21.735988466619386 15.388805585099824, -22.03538408866006 15.150045543774493, -22.41389120850187 14.848196188198125 M-21.436592844578712 15.627565626425156 C-21.724980336163323 15.397584276199881, -22.013367827747935 15.167602925974604, -22.41389120850187 14.848196188198125 M-22.41389120850187 14.848196188198125 C-22.684632832627265 14.60231580859827, -22.95537445675266 14.356435428998415, -23.339247236767974 14.007812326905697 M-22.41389120850187 14.848196188198125 C-22.636092261484105 14.646399070997356, -22.85829331446634 14.444601953796585, -23.339247236767974 14.007812326905697 M-23.339247236767974 14.007812326905697 C-23.569277036949074 13.77028767242089, -23.799306837130175 13.532763017936082, -24.208858442968655 13.109867360095677 M-23.339247236767974 14.007812326905697 C-23.638919049700192 13.69837657653978, -23.93859086263241 13.38894082617386, -24.208858442968655 13.109867360095677 M-24.208858442968655 13.109867360095677 C-24.4922005439054 12.777037605713097, -24.775542644842147 12.444207851330516, -25.01915140812658 12.158051136245307 M-24.208858442968655 13.109867360095677 C-24.4000920466756 12.88523348768119, -24.591325650382544 12.660599615266703, -25.01915140812658 12.158051136245307 M-25.01915140812658 12.158051136245307 C-25.169517232189516 11.95657463060935, -25.319883056252454 11.755098124973392, -25.766796464640635 11.156274872382316 M-25.01915140812658 12.158051136245307 C-25.289241391147677 11.796155164700677, -25.559331374168774 11.434259193156048, -25.766796464640635 11.156274872382316 M-25.766796464640635 11.156274872382316 C-26.02659997262502 10.7571469171081, -26.28640348060941 10.358018961833887, -26.448721378604244 10.108655082055249 M-25.766796464640635 11.156274872382316 C-26.004513799613676 10.791077209821399, -26.242231134586714 10.42587954726048, -26.448721378604244 10.108655082055249 M-26.448721378604244 10.108655082055249 C-26.658833546066635 9.735579652561709, -26.868945713529026 9.36250422306817, -27.0621239742735 9.019496659696289 M-26.448721378604244 10.108655082055249 C-26.581927955605305 9.872133315961285, -26.715134532606367 9.63561154986732, -27.0621239742735 9.019496659696289 M-27.0621239742735 9.019496659696289 C-27.234558671900817 8.661432320561687, -27.40699336952813 8.303367981427085, -27.60448364880834 7.893275190886686 M-27.0621239742735 9.019496659696289 C-27.180993906899417 8.772660701189459, -27.299863839525337 8.525824742682628, -27.60448364880834 7.893275190886686 M-27.60448364880834 7.893275190886686 C-27.761062305152336 7.506522882474643, -27.91764096149633 7.1197705740626, -28.073571729970325 6.73461856121551 M-27.60448364880834 7.893275190886686 C-27.72982580148824 7.58367765044167, -27.85516795416814 7.274080109996653, -28.073571729970325 6.73461856121551 M-28.073571729970325 6.73461856121551 C-28.199025937601448 6.35677047624407, -28.32448014523257 5.97892239127263, -28.46746063421488 5.5482879393051325 M-28.073571729970325 6.73461856121551 C-28.183572241750923 6.403314545933795, -28.29357275353152 6.072010530652079, -28.46746063421488 5.5482879393051325 M-28.46746063421488 5.5482879393051325 C-28.541573826235812 5.2656622172687175, -28.61568701825674 4.9830364952323025, -28.784531787545557 4.339158212148136 M-28.46746063421488 5.5482879393051325 C-28.573337867431235 5.144532161568029, -28.67921510064759 4.740776383830925, -28.784531787545557 4.339158212148136 M-28.784531787545557 4.339158212148136 C-28.84790444531116 4.013753008337738, -28.91127710307676 3.688347804527341, -29.023482276581777 3.112197953150904 M-28.784531787545557 4.339158212148136 C-28.840636441158807 4.051072673566841, -28.896741094772057 3.7629871349855453, -29.023482276581777 3.112197953150904 M-29.023482276581777 3.112197953150904 C-29.070680940219418 2.7461344384077053, -29.11787960385706 2.3800709236645066, -29.183330202509364 1.872449005199809 M-29.023482276581777 3.112197953150904 C-29.08519218053505 2.6335881240881767, -29.146902084488325 2.1549782950254492, -29.183330202509364 1.872449005199809 M-29.183330202509364 1.872449005199809 C-29.215080237373453 1.3779165840247753, -29.24683027223754 0.8833841628497415, -29.263418715913414 0.6250057626472781 M-29.183330202509364 1.872449005199809 C-29.212440369427444 1.4190346581469169, -29.24155053634552 0.9656203110940248, -29.263418715913414 0.6250057626472781 M-29.263418715913414 0.6250057626472781 C-29.263418715913414 0.24781810359330375, -29.263418715913414 -0.12936955546067064, -29.263418715913414 -0.6250057626472687 M-29.263418715913414 0.6250057626472781 C-29.263418715913414 0.22985287515897607, -29.263418715913414 -0.165300012329326, -29.263418715913414 -0.6250057626472687 M-29.263418715913414 -0.6250057626472687 C-29.2451900276522 -0.9089322962480273, -29.226961339390982 -1.1928588298487859, -29.183330202509367 -1.8724490051997822 M-29.263418715913414 -0.6250057626472687 C-29.241889087567532 -0.9603471025375816, -29.22035945922165 -1.2956884424278945, -29.183330202509367 -1.8724490051997822 M-29.183330202509367 -1.8724490051997822 C-29.12926231231454 -2.291788884638293, -29.075194422119715 -2.711128764076803, -29.023482276581777 -3.112197953150895 M-29.183330202509367 -1.8724490051997822 C-29.13879262029533 -2.2178736979114846, -29.09425503808129 -2.5632983906231868, -29.023482276581777 -3.112197953150895 M-29.023482276581777 -3.112197953150895 C-28.969220165683513 -3.390822424312278, -28.914958054785252 -3.669446895473661, -28.78453178754556 -4.339158212148126 M-29.023482276581777 -3.112197953150895 C-28.96869369911654 -3.3935257188649532, -28.913905121651297 -3.6748534845790117, -28.78453178754556 -4.339158212148126 M-28.78453178754556 -4.339158212148126 C-28.672197004077713 -4.767539427714163, -28.559862220609862 -5.195920643280201, -28.467460634214884 -5.548287939305123 M-28.78453178754556 -4.339158212148126 C-28.68816514434161 -4.706645988252145, -28.591798501137664 -5.074133764356164, -28.467460634214884 -5.548287939305123 M-28.467460634214884 -5.548287939305123 C-28.33306241636051 -5.953073958034492, -28.198664198506133 -6.35785997676386, -28.073571729970332 -6.734618561215485 M-28.467460634214884 -5.548287939305123 C-28.3472903051826 -5.9102218238085875, -28.227119976150313 -6.272155708312052, -28.073571729970332 -6.734618561215485 M-28.073571729970332 -6.734618561215485 C-27.93739653270034 -7.070973931240704, -27.801221335430345 -7.407329301265921, -27.604483648808344 -7.893275190886676 M-28.073571729970332 -6.734618561215485 C-27.902694325511412 -7.1566890539188845, -27.731816921052495 -7.578759546622284, -27.604483648808344 -7.893275190886676 M-27.604483648808344 -7.893275190886676 C-27.447993690708095 -8.218229937230552, -27.291503732607847 -8.543184683574427, -27.062123974273504 -9.019496659696282 M-27.604483648808344 -7.893275190886676 C-27.48822082905077 -8.134697423739109, -27.3719580092932 -8.376119656591541, -27.062123974273504 -9.019496659696282 M-27.062123974273504 -9.019496659696282 C-26.891314704719214 -9.322785814104014, -26.720505435164924 -9.626074968511748, -26.448721378604247 -10.108655082055243 M-27.062123974273504 -9.019496659696282 C-26.916479457777772 -9.278103246840983, -26.770834941282036 -9.536709833985682, -26.448721378604247 -10.108655082055243 M-26.448721378604247 -10.108655082055243 C-26.28088392747994 -10.36649847764829, -26.11304647635564 -10.624341873241338, -25.76679646464064 -11.156274872382308 M-26.448721378604247 -10.108655082055243 C-26.260956295018435 -10.39711267242774, -26.073191211432622 -10.685570262800235, -25.76679646464064 -11.156274872382308 M-25.76679646464064 -11.156274872382308 C-25.53397127390585 -11.468239417155706, -25.30114608317106 -11.780203961929104, -25.019151408126586 -12.158051136245302 M-25.76679646464064 -11.156274872382308 C-25.51920158198327 -11.488029458785348, -25.2716066993259 -11.819784045188387, -25.019151408126586 -12.158051136245302 M-25.019151408126586 -12.158051136245302 C-24.704241197287992 -12.527962588794932, -24.389330986449398 -12.89787404134456, -24.208858442968662 -13.10986736009567 M-25.019151408126586 -12.158051136245302 C-24.775531832428193 -12.444220552207193, -24.531912256729804 -12.730389968169083, -24.208858442968662 -13.10986736009567 M-24.208858442968662 -13.10986736009567 C-23.91198755362431 -13.416410926897013, -23.61511666427996 -13.722954493698355, -23.339247236767996 -14.007812326905677 M-24.208858442968662 -13.10986736009567 C-23.91091903783878 -13.41751425717235, -23.6129796327089 -13.72516115424903, -23.339247236767996 -14.007812326905677 M-23.339247236767996 -14.007812326905677 C-23.0507411091084 -14.269825958592282, -22.76223498144881 -14.531839590278889, -22.413891208501887 -14.848196188198107 M-23.339247236767996 -14.007812326905677 C-22.999163235046932 -14.316667619139142, -22.659079233325873 -14.625522911372608, -22.413891208501887 -14.848196188198107 M-22.413891208501887 -14.848196188198107 C-22.15306695140728 -15.056196592406081, -21.89224269431267 -15.264196996614054, -21.43659284457872 -15.627565626425149 M-22.413891208501887 -14.848196188198107 C-22.03221984114439 -15.152568946964076, -21.650548473786888 -15.456941705730042, -21.43659284457872 -15.627565626425149 M-21.43659284457872 -15.627565626425149 C-21.076100084653998 -15.879029770268573, -20.715607324729277 -16.130493914111998, -20.41136807360571 -16.342718045390885 M-21.43659284457872 -15.627565626425149 C-21.22328210420064 -15.776361964839774, -21.00997136382256 -15.925158303254397, -20.41136807360571 -16.342718045390885 M-20.41136807360571 -16.342718045390885 C-20.180213120641255 -16.482845536295223, -19.949058167676803 -16.62297302719956, -19.34242976407679 -16.99071473040609 M-20.41136807360571 -16.342718045390885 C-20.060518777515814 -16.555404950499902, -19.709669481425912 -16.768091855608922, -19.34242976407679 -16.99071473040609 M-19.34242976407679 -16.99071473040609 C-18.971302608152374 -17.18433152993357, -18.60017545222796 -17.37794832946105, -18.234170412792388 -17.56889292409717 M-19.34242976407679 -16.99071473040609 C-18.919869863536302 -17.21116395985553, -18.497309962995814 -17.43161318930497, -18.234170412792388 -17.56889292409717 M-18.234170412792388 -17.56889292409717 C-17.888598981289064 -17.721867145811395, -17.54302754978574 -17.87484136752562, -17.091144095147804 -18.07487676824742 M-18.234170412792388 -17.56889292409717 C-17.874973769507843 -17.727898622889395, -17.5157771262233 -17.88690432168162, -17.091144095147804 -18.07487676824742 M-17.091144095147804 -18.07487676824742 C-16.743489850503707 -18.202816743957058, -16.395835605859613 -18.33075671966669, -15.918047751460618 -18.506587066708033 M-17.091144095147804 -18.07487676824742 C-16.855257130634804 -18.1616853517034, -16.619370166121804 -18.24849393515938, -15.918047751460618 -18.506587066708033 M-15.918047751460618 -18.506587066708033 C-15.475423536043143 -18.637955610462022, -15.03279932062567 -18.769324154216008, -14.719701886235413 -18.862249829261067 M-15.918047751460618 -18.506587066708033 C-15.599421540805432 -18.601153653527383, -15.280795330150248 -18.69572024034673, -14.719701886235413 -18.862249829261067 M-14.719701886235413 -18.862249829261067 C-14.400463803972633 -18.935113838314372, -14.08122572170985 -19.00797784736768, -13.501030759676768 -19.140403561325773 M-14.719701886235413 -18.862249829261067 C-14.309653361380072 -18.955840729242606, -13.89960483652473 -19.049431629224145, -13.501030759676768 -19.140403561325773 M-13.501030759676768 -19.140403561325773 C-13.153881699890272 -19.196527929130887, -12.806732640103776 -19.252652296936002, -12.26704215284788 -19.3399052695533 M-13.501030759676768 -19.140403561325773 C-13.237266916525583 -19.1830468539673, -12.973503073374397 -19.225690146608834, -12.26704215284788 -19.3399052695533 M-12.26704215284788 -19.3399052695533 C-11.905801762858266 -19.374753695520464, -11.544561372868651 -19.40960212148763, -11.022806789623903 -19.45993515863156 M-12.26704215284788 -19.3399052695533 C-12.001653400152913 -19.36550700334911, -11.736264647457944 -19.391108737144922, -11.022806789623903 -19.45993515863156 M-11.022806789623903 -19.45993515863156 C-10.771195697305151 -19.468003836630942, -10.519584604986399 -19.47607251463032, -9.773437500000005 -19.5 M-11.022806789623903 -19.45993515863156 C-10.663524095295957 -19.471456655337317, -10.30424140096801 -19.48297815204307, -9.773437500000005 -19.5 M-9.773437500000005 -19.5 C-9.773437500000004 -19.5, -9.773437500000002 -19.5, -9.7734375 -19.5 M-9.773437500000005 -19.5 C-9.773437500000004 -19.5, -9.773437500000002 -19.5, -9.7734375 -19.5" stroke="hsl(40.5882352941, 60%, 83.3333333333%)" stroke-width="1.3" fill="none" stroke-dasharray="0 0" style=""></path></g><g class="label" style="" transform="translate(-16.8984375, -12)"><rect></rect><foreignObject width="33.796875" height="24"><div xmlns="http://www.w3.org/1999/xhtml" style="display: table-cell; white-space: nowrap; line-height: 1.5; max-width: 200px; text-align: center;"><span class="nodeLabel "><p>Start</p></span></div></foreignObject></g></g><g class="node default  " id="flowchart-Input-1" transform="translate(66.8984375, 124)"><rect class="basic label-container" style="" x="-47.796875" y="-27" width="95.59375" height="54"></rect><g class="label" style="" transform="translate(-17.796875, -12)"><rect></rect><foreignObject width="35.59375" height="24"><div xmlns="http://www.w3.org/1999/xhtml" style="display: table-cell; white-space: nowrap; line-height: 1.5; max-width: 200px; text-align: center;"><span class="nodeLabel "><p>Input</p></span></div></foreignObject></g></g><g class="node default  " id="flowchart-Process-3" transform="translate(66.8984375, 228)"><rect class="basic label-container" style="" x="-58.8984375" y="-27" width="117.796875" height="54"></rect><g class="label" style="" transform="translate(-28.8984375, -12)"><rect></rect><foreignObject width="57.796875" height="24"><div xmlns="http://www.w3.org/1999/xhtml" style="display: table-cell; white-space: nowrap; line-height: 1.5; max-width: 200px; text-align: center;"><span class="nodeLabel "><p>Process</p></span></div></foreignObject></g></g><g class="node default  " id="flowchart-Output-5" transform="translate(66.8984375, 332)"><rect class="basic label-container" style="" x="-54.015625" y="-27" width="108.03125" height="54"></rect><g class="label" style="" transform="translate(-24.015625, -12)"><rect></rect><foreignObject width="48.03125" height="24"><div xmlns="http://www.w3.org/1999/xhtml" style="display: table-cell; white-space: nowrap; line-height: 1.5; max-width: 200px; text-align: center;"><span class="nodeLabel "><p>Output</p></span></div></foreignObject></g></g><g class="node default  " id="flowchart-End-7" transform="translate(66.8984375, 428.5)"><g class="basic label-container outer-path"><path d="M-7.109375 -19.5 C-2.692029725013442 -19.5, 1.725315549973116 -19.5, 7.109375 -19.5 C7.109375 -19.5, 7.109374999999999 -19.5, 7.109374999999999 -19.5 C7.47722927365999 -19.488203629428632, 7.84508354731998 -19.476407258857265, 8.3587442896239 -19.45993515863156 C8.681096785203266 -19.428838201068615, 9.003449280782634 -19.397741243505667, 9.602979652847864 -19.3399052695533 C9.973730476808427 -19.279965151550936, 10.34448130076899 -19.220025033548577, 10.836968259676757 -19.140403561325776 C11.237576138852203 -19.048967427114704, 11.63818401802765 -18.957531292903628, 12.05563938623539 -18.862249829261074 C12.444948092192492 -18.746705048856104, 12.834256798149596 -18.631160268451136, 13.253985251460602 -18.50658706670804 C13.629592598246163 -18.3683600910147, 14.005199945031725 -18.23013311532136, 14.427081595147794 -18.074876768247425 C14.696024691289999 -17.95582363749876, 14.964967787432204 -17.8367705067501, 15.570107912792382 -17.568892924097174 C15.935895080043977 -17.37806199323988, 16.301682247295574 -17.187231062382587, 16.678367264076783 -16.990714730406097 C16.972896046791455 -16.812169651481213, 17.267424829506126 -16.633624572556332, 17.747305573605697 -16.342718045390892 C17.982821288615288 -16.178432477911187, 18.218337003624878 -16.014146910431478, 18.772530344578712 -15.627565626425154 C19.161546922794514 -15.317335257463961, 19.550563501010316 -15.007104888502768, 19.74982870850187 -14.848196188198123 C20.099377816661622 -14.530744936730033, 20.448926924821375 -14.213293685261942, 20.675184736767985 -14.007812326905688 C20.909114068316644 -13.766261086126395, 21.143043399865302 -13.5247098453471, 21.544795942968648 -13.10986736009568 C21.79386766559967 -12.817293542110773, 22.042939388230696 -12.524719724125864, 22.355088908126582 -12.158051136245305 C22.592261718136527 -11.840261177719466, 22.82943452814647 -11.522471219193624, 23.102733964640635 -11.156274872382312 C23.3406587730825 -10.790758474858853, 23.578583581524363 -10.425242077335394, 23.784658878604247 -10.108655082055241 C23.945743812895905 -9.822632469602036, 24.10682874718756 -9.536609857148832, 24.3980614742735 -9.019496659696287 C24.6125446384103 -8.57411778016169, 24.827027802547097 -8.12873890062709, 24.94042114880834 -7.893275190886684 C25.049273248658373 -7.62440839974492, 25.15812534850841 -7.355541608603155, 25.409509229970325 -6.734618561215508 C25.54275591818953 -6.3333007662759355, 25.67600260640874 -5.931982971336363, 25.80339813421488 -5.548287939305138 C25.914306984004785 -5.125344426856666, 26.025215833794693 -4.7024009144081935, 26.12046928754556 -4.339158212148133 C26.19710772357872 -3.9456360406570505, 26.27374615961188 -3.5521138691659675, 26.359419776581777 -3.1121979531509023 C26.39675785693163 -2.822611175195386, 26.43409593728148 -2.5330243972398696, 26.519267702509367 -1.872449005199798 C26.541956830754952 -1.5190475184401473, 26.564645959000533 -1.1656460316804966, 26.599356215913414 -0.6250057626472757 C26.599356215913414 -0.1757880460029831, 26.599356215913414 0.2734296706413095, 26.599356215913414 0.625005762647271 C26.572817114964405 1.0383736819047875, 26.5462780140154 1.451741601162304, 26.519267702509367 1.8724490051997846 C26.466666881741155 2.2804105838711153, 26.41406606097294 2.6883721625424455, 26.359419776581777 3.1121979531508885 C26.2834963922563 3.502048485249261, 26.207573007930822 3.8918990173476335, 26.12046928754556 4.339158212148129 C26.04612672103091 4.622658638540633, 25.97178415451626 4.906159064933137, 25.803398134214884 5.548287939305125 C25.707904782670717 5.835898699356799, 25.61241143112655 6.123509459408473, 25.40950922997033 6.734618561215495 C25.251329576938122 7.1253253624005914, 25.093149923905916 7.516032163585689, 24.940421148808344 7.893275190886679 C24.826687331703187 8.129445895619378, 24.712953514598034 8.365616600352078, 24.398061474273504 9.019496659696284 C24.17621666795985 9.413404577528754, 23.954371861646194 9.807312495361222, 23.78465887860425 10.108655082055236 C23.636722185628198 10.335925569030762, 23.48878549265214 10.563196056006287, 23.10273396464064 11.156274872382301 C22.948454415028483 11.362995413706486, 22.79417486541632 11.56971595503067, 22.355088908126582 12.158051136245302 C22.142964668476715 12.407224338349206, 21.930840428826848 12.656397540453112, 21.54479594296866 13.10986736009567 C21.33448027670625 13.327035552748935, 21.12416461044384 13.544203745402198, 20.67518473676799 14.007812326905684 C20.487927028422117 14.177874823057945, 20.300669320076246 14.347937319210205, 19.749828708501887 14.848196188198111 C19.41436146347515 15.115722388948626, 19.078894218448415 15.383248589699143, 18.772530344578715 15.627565626425152 C18.394990107148484 15.890921352603016, 18.017449869718252 16.15427707878088, 17.747305573605708 16.34271804539089 C17.40681707665383 16.549124173175624, 17.066328579701953 16.755530300960363, 16.678367264076787 16.990714730406093 C16.377928867851903 17.147453249276637, 16.077490471627016 17.304191768147184, 15.570107912792386 17.56889292409717 C15.207539255955057 17.729391313261985, 14.844970599117728 17.8898897024268, 14.427081595147804 18.07487676824742 C14.090952661231082 18.19857532307058, 13.75482372731436 18.322273877893736, 13.253985251460616 18.506587066708033 C12.988540546751993 18.585369661717866, 12.72309584204337 18.664152256727697, 12.055639386235413 18.86224982926107 C11.648862794535457 18.955093931851252, 11.242086202835502 19.047938034441433, 10.836968259676766 19.140403561325773 C10.500683456267623 19.194771480413362, 10.164398652858479 19.249139399500955, 9.602979652847878 19.3399052695533 C9.260308155415183 19.37296237678786, 8.917636657982488 19.40601948402242, 8.3587442896239 19.45993515863156 C7.93591178542039 19.473494574047823, 7.513079281216881 19.48705398946409, 7.1093750000000036 19.5 C7.109375000000003 19.5, 7.109375000000002 19.5, 7.109375 19.5 C1.5046414077550656 19.5, -4.100092184489869 19.5, -7.1093749999999964 19.5 C-7.503318233866232 19.487367007253898, -7.897261467732467 19.474734014507796, -8.358744289623893 19.45993515863156 C-8.75143029495988 19.422053211970812, -9.144116300295865 19.38417126531007, -9.602979652847871 19.3399052695533 C-10.00501062439067 19.274908019871006, -10.407041595933466 19.209910770188717, -10.836968259676759 19.140403561325773 C-11.103611360179963 19.07954401364476, -11.370254460683167 19.018684465963748, -12.055639386235388 18.862249829261074 C-12.417383192895812 18.75488616627625, -12.779126999556238 18.647522503291427, -13.253985251460593 18.506587066708043 C-13.526318237264 18.406366010513864, -13.798651223067408 18.306144954319688, -14.427081595147797 18.074876768247425 C-14.778576350148885 17.919280466929887, -15.130071105149975 17.76368416561235, -15.57010791279238 17.568892924097174 C-15.892355241268953 17.40077669924021, -16.214602569745526 17.23266047438325, -16.67836726407678 16.990714730406097 C-17.075044860069223 16.750246440579172, -17.471722456061666 16.509778150752247, -17.747305573605686 16.3427180453909 C-18.1031120849203 16.094522825713454, -18.458918596234916 15.846327606036008, -18.772530344578712 15.627565626425156 C-19.01342869338512 15.435455603826336, -19.254327042191523 15.243345581227516, -19.74982870850187 14.848196188198125 C-19.988333033239556 14.631592870949987, -20.226837357977242 14.414989553701847, -20.675184736767974 14.007812326905697 C-20.93825835785972 13.736167214382498, -21.201331978951462 13.4645221018593, -21.544795942968655 13.109867360095677 C-21.768013061533757 12.847663831215245, -21.99123018009886 12.585460302334813, -22.35508890812658 12.158051136245307 C-22.65375456080821 11.757866370652625, -22.952420213489837 11.357681605059943, -23.102733964640635 11.156274872382316 C-23.33352047857924 10.801724812116332, -23.56430699251784 10.447174751850348, -23.784658878604244 10.108655082055249 C-24.000009732101272 9.726277835032727, -24.2153605855983 9.343900588010206, -24.3980614742735 9.019496659696289 C-24.602566872206175 8.594836825174553, -24.807072270138846 8.170176990652818, -24.94042114880834 7.893275190886686 C-25.117098812462636 7.456877945830331, -25.29377647611693 7.020480700773976, -25.409509229970325 6.73461856121551 C-25.562383007185755 6.2741871013712744, -25.71525678440118 5.813755641527039, -25.80339813421488 5.5482879393051325 C-25.899873528866227 5.1803854467990185, -25.99634892351757 4.812482954292904, -26.120469287545557 4.339158212148136 C-26.189269784274096 3.9858822024372342, -26.25807028100263 3.6326061927263322, -26.359419776581777 3.112197953150904 C-26.419508709138096 2.6461600581459366, -26.47959764169442 2.1801221631409686, -26.519267702509364 1.872449005199809 C-26.538182859122948 1.577830172903654, -26.55709801573653 1.2832113406074988, -26.599356215913414 0.6250057626472781 C-26.599356215913414 0.2564399838399749, -26.599356215913414 -0.11212579496732833, -26.599356215913414 -0.6250057626472687 C-26.574626653846906 -1.0101886531763342, -26.5498970917804 -1.3953715437053997, -26.519267702509367 -1.8724490051997822 C-26.482065099678813 -2.160985046268683, -26.44486249684826 -2.4495210873375832, -26.359419776581777 -3.112197953150895 C-26.294684238664797 -3.4446012584938144, -26.229948700747812 -3.777004563836733, -26.12046928754556 -4.339158212148126 C-26.047658845094325 -4.616815985460063, -25.97484840264309 -4.8944737587719995, -25.803398134214884 -5.548287939305123 C-25.662239179979395 -5.973436218837353, -25.5210802257439 -6.398584498369583, -25.409509229970332 -6.734618561215485 C-25.23234628193178 -7.172214468083302, -25.055183333893222 -7.609810374951119, -24.940421148808344 -7.893275190886676 C-24.76150726388467 -8.264793701074563, -24.582593378961 -8.63631221126245, -24.398061474273504 -9.019496659696282 C-24.15288859244024 -9.45482593783761, -23.907715710606983 -9.89015521597894, -23.784658878604247 -10.108655082055243 C-23.642822035629795 -10.32655456138924, -23.50098519265534 -10.544454040723238, -23.10273396464064 -11.156274872382308 C-22.952270629415118 -11.357882034092684, -22.80180729418959 -11.55948919580306, -22.355088908126586 -12.158051136245302 C-22.093842877518586 -12.464925589117716, -21.832596846910587 -12.77180004199013, -21.544795942968662 -13.10986736009567 C-21.239173344949233 -13.425447784632677, -20.9335507469298 -13.741028209169686, -20.675184736767996 -14.007812326905677 C-20.32190592488 -14.328650796617206, -19.968627112992003 -14.649489266328734, -19.749828708501887 -14.848196188198107 C-19.499681618340862 -15.047681835907895, -19.249534528179833 -15.247167483617682, -18.77253034457872 -15.627565626425149 C-18.501222993623877 -15.816817889745314, -18.229915642669038 -16.00607015306548, -17.74730557360571 -16.342718045390885 C-17.427385503218847 -16.53665547211842, -17.10746543283198 -16.730592898845956, -16.67836726407679 -16.99071473040609 C-16.293453526988745 -17.19152398049591, -15.9085397899007 -17.392333230585727, -15.57010791279239 -17.56889292409717 C-15.174151273601474 -17.74417118263061, -14.778194634410559 -17.91944944116405, -14.427081595147806 -18.07487676824742 C-14.189482726960907 -18.16231534808006, -13.951883858774009 -18.2497539279127, -13.253985251460618 -18.506587066708033 C-12.888384828789363 -18.61509535308108, -12.522784406118106 -18.72360363945413, -12.055639386235413 -18.862249829261067 C-11.654474446933872 -18.953813108810767, -11.25330950763233 -19.045376388360463, -10.836968259676768 -19.140403561325773 C-10.388943991128919 -19.212836650584496, -9.94091972258107 -19.28526973984322, -9.60297965284788 -19.3399052695533 C-9.247723845148748 -19.374176370064415, -8.892468037449618 -19.40844747057553, -8.358744289623903 -19.45993515863156 C-8.036383105784434 -19.47027265435931, -7.7140219219449655 -19.480610150087063, -7.109375000000006 -19.5 C-7.1093750000000036 -19.5, -7.109375000000002 -19.5, -7.109375 -19.5" stroke="none" stroke-width="0" fill="#fff4dd" style=""></path><path d="M-7.109375 -19.5 C-2.7335618841208547 -19.5, 1.6422512317582907 -19.5, 7.109375 -19.5 M-7.109375 -19.5 C-2.5544787883628057 -19.5, 2.0004174232743885 -19.5, 7.109375 -19.5 M7.109375 -19.5 C7.109375 -19.5, 7.109374999999999 -19.5, 7.109374999999999 -19.5 M7.109375 -19.5 C7.109375 -19.5, 7.109374999999999 -19.5, 7.109374999999999 -19.5 M7.109374999999999 -19.5 C7.495994453863626 -19.48760186662371, 7.8826139077272535 -19.47520373324742, 8.3587442896239 -19.45993515863156 M7.109374999999999 -19.5 C7.585166221116291 -19.484742301610233, 8.060957442232581 -19.46948460322046, 8.3587442896239 -19.45993515863156 M8.3587442896239 -19.45993515863156 C8.633276259831732 -19.43345138963861, 8.907808230039562 -19.40696762064566, 9.602979652847864 -19.3399052695533 M8.3587442896239 -19.45993515863156 C8.758421195226004 -19.421378808229928, 9.15809810082811 -19.382822457828297, 9.602979652847864 -19.3399052695533 M9.602979652847864 -19.3399052695533 C9.957275548829887 -19.282625456696636, 10.311571444811912 -19.225345643839972, 10.836968259676757 -19.140403561325776 M9.602979652847864 -19.3399052695533 C10.083886642658644 -19.262155956930098, 10.564793632469426 -19.1844066443069, 10.836968259676757 -19.140403561325776 M10.836968259676757 -19.140403561325776 C11.195425310957173 -19.058588078521886, 11.553882362237587 -18.976772595717996, 12.05563938623539 -18.862249829261074 M10.836968259676757 -19.140403561325776 C11.275676448989442 -19.040271279953636, 11.714384638302127 -18.940138998581496, 12.05563938623539 -18.862249829261074 M12.05563938623539 -18.862249829261074 C12.336857327602939 -18.778785820406284, 12.618075268970488 -18.69532181155149, 13.253985251460602 -18.50658706670804 M12.05563938623539 -18.862249829261074 C12.351236323045555 -18.7745182100358, 12.64683325985572 -18.686786590810527, 13.253985251460602 -18.50658706670804 M13.253985251460602 -18.50658706670804 C13.701052302350888 -18.342062259337897, 14.148119353241174 -18.17753745196776, 14.427081595147794 -18.074876768247425 M13.253985251460602 -18.50658706670804 C13.631242431848076 -18.3677529369983, 14.008499612235552 -18.228918807288565, 14.427081595147794 -18.074876768247425 M14.427081595147794 -18.074876768247425 C14.836280046758734 -17.89373675216005, 15.245478498369675 -17.712596736072673, 15.570107912792382 -17.568892924097174 M14.427081595147794 -18.074876768247425 C14.821873331945609 -17.900114177447808, 15.216665068743424 -17.725351586648195, 15.570107912792382 -17.568892924097174 M15.570107912792382 -17.568892924097174 C15.989362732833436 -17.350167953027285, 16.408617552874492 -17.131442981957395, 16.678367264076783 -16.990714730406097 M15.570107912792382 -17.568892924097174 C15.848987730857143 -17.423401501643838, 16.127867548921905 -17.2779100791905, 16.678367264076783 -16.990714730406097 M16.678367264076783 -16.990714730406097 C16.952684838666354 -16.824421804620894, 17.227002413255924 -16.65812887883569, 17.747305573605697 -16.342718045390892 M16.678367264076783 -16.990714730406097 C16.897628722470625 -16.857797145804398, 17.116890180864466 -16.724879561202698, 17.747305573605697 -16.342718045390892 M17.747305573605697 -16.342718045390892 C17.98759501212193 -16.17510253504411, 18.227884450638165 -16.00748702469733, 18.772530344578712 -15.627565626425154 M17.747305573605697 -16.342718045390892 C18.106656340784617 -16.09205050625087, 18.466007107963534 -15.84138296711085, 18.772530344578712 -15.627565626425154 M18.772530344578712 -15.627565626425154 C18.99411031732588 -15.450861494649999, 19.21569029007305 -15.274157362874842, 19.74982870850187 -14.848196188198123 M18.772530344578712 -15.627565626425154 C19.029643410627205 -15.422524798317516, 19.286756476675702 -15.217483970209877, 19.74982870850187 -14.848196188198123 M19.74982870850187 -14.848196188198123 C19.937708705507706 -14.677568545949738, 20.125588702513546 -14.506940903701352, 20.675184736767985 -14.007812326905688 M19.74982870850187 -14.848196188198123 C19.9592922538174 -14.657966938444272, 20.168755799132928 -14.46773768869042, 20.675184736767985 -14.007812326905688 M20.675184736767985 -14.007812326905688 C20.895875167272884 -13.779931338388069, 21.11656559777778 -13.552050349870449, 21.544795942968648 -13.10986736009568 M20.675184736767985 -14.007812326905688 C21.021558510266065 -13.650152967953247, 21.36793228376414 -13.292493609000804, 21.544795942968648 -13.10986736009568 M21.544795942968648 -13.10986736009568 C21.743697332618133 -12.876226470003706, 21.94259872226762 -12.642585579911733, 22.355088908126582 -12.158051136245305 M21.544795942968648 -13.10986736009568 C21.864585522651247 -12.734224323257934, 22.184375102333846 -12.358581286420186, 22.355088908126582 -12.158051136245305 M22.355088908126582 -12.158051136245305 C22.62603653494139 -11.795006000150055, 22.8969841617562 -11.431960864054805, 23.102733964640635 -11.156274872382312 M22.355088908126582 -12.158051136245305 C22.57305047860929 -11.866002488506041, 22.791012049091993 -11.573953840766777, 23.102733964640635 -11.156274872382312 M23.102733964640635 -11.156274872382312 C23.32287246740033 -10.818083016678482, 23.543010970160026 -10.479891160974653, 23.784658878604247 -10.108655082055241 M23.102733964640635 -11.156274872382312 C23.308303860158805 -10.840464309620273, 23.513873755676975 -10.524653746858235, 23.784658878604247 -10.108655082055241 M23.784658878604247 -10.108655082055241 C23.973059832564594 -9.774130110633346, 24.16146078652494 -9.439605139211448, 24.3980614742735 -9.019496659696287 M23.784658878604247 -10.108655082055241 C24.023498965674992 -9.684570322279768, 24.262339052745737 -9.260485562504295, 24.3980614742735 -9.019496659696287 M24.3980614742735 -9.019496659696287 C24.54441666578597 -8.715586973021203, 24.69077185729844 -8.41167728634612, 24.94042114880834 -7.893275190886684 M24.3980614742735 -9.019496659696287 C24.565772984416775 -8.671240120432318, 24.733484494560052 -8.322983581168346, 24.94042114880834 -7.893275190886684 M24.94042114880834 -7.893275190886684 C25.119851863584618 -7.4500778563324115, 25.29928257836089 -7.00688052177814, 25.409509229970325 -6.734618561215508 M24.94042114880834 -7.893275190886684 C25.055793784385866 -7.608302550432032, 25.17116641996339 -7.323329909977379, 25.409509229970325 -6.734618561215508 M25.409509229970325 -6.734618561215508 C25.51673885921072 -6.411660002664706, 25.623968488451116 -6.088701444113905, 25.80339813421488 -5.548287939305138 M25.409509229970325 -6.734618561215508 C25.556970223886047 -6.290489542260088, 25.70443121780177 -5.846360523304668, 25.80339813421488 -5.548287939305138 M25.80339813421488 -5.548287939305138 C25.92352854455918 -5.090178619813142, 26.043658954903478 -4.632069300321145, 26.12046928754556 -4.339158212148133 M25.80339813421488 -5.548287939305138 C25.890606024795623 -5.215726456381898, 25.97781391537637 -4.8831649734586575, 26.12046928754556 -4.339158212148133 M26.12046928754556 -4.339158212148133 C26.173697126397546 -4.06584450935091, 26.226924965249534 -3.792530806553687, 26.359419776581777 -3.1121979531509023 M26.12046928754556 -4.339158212148133 C26.19145948346419 -3.9746385598891965, 26.26244967938282 -3.6101189076302598, 26.359419776581777 -3.1121979531509023 M26.359419776581777 -3.1121979531509023 C26.415192895425037 -2.6796326570506235, 26.470966014268296 -2.247067360950345, 26.519267702509367 -1.872449005199798 M26.359419776581777 -3.1121979531509023 C26.407535832783125 -2.7390193228432604, 26.45565188898447 -2.365840692535619, 26.519267702509367 -1.872449005199798 M26.519267702509367 -1.872449005199798 C26.539814093908717 -1.5524223744062944, 26.560360485308067 -1.2323957436127908, 26.599356215913414 -0.6250057626472757 M26.519267702509367 -1.872449005199798 C26.549952910165487 -1.3945021273019043, 26.580638117821607 -0.9165552494040105, 26.599356215913414 -0.6250057626472757 M26.599356215913414 -0.6250057626472757 C26.599356215913414 -0.3704590858610531, 26.599356215913414 -0.11591240907483047, 26.599356215913414 0.625005762647271 M26.599356215913414 -0.6250057626472757 C26.599356215913414 -0.36297788653704854, 26.599356215913414 -0.10095001042682139, 26.599356215913414 0.625005762647271 M26.599356215913414 0.625005762647271 C26.56879849379152 1.1009669504451518, 26.53824077166962 1.5769281382430327, 26.519267702509367 1.8724490051997846 M26.599356215913414 0.625005762647271 C26.581707629655448 0.8998967392975112, 26.56405904339748 1.1747877159477516, 26.519267702509367 1.8724490051997846 M26.519267702509367 1.8724490051997846 C26.462462734699745 2.3130171181215404, 26.405657766890123 2.7535852310432958, 26.359419776581777 3.1121979531508885 M26.519267702509367 1.8724490051997846 C26.470022971325417 2.2543814157904247, 26.420778240141466 2.6363138263810653, 26.359419776581777 3.1121979531508885 M26.359419776581777 3.1121979531508885 C26.280919991875415 3.515277756682688, 26.20242020716905 3.9183575602144876, 26.12046928754556 4.339158212148129 M26.359419776581777 3.1121979531508885 C26.30452152549186 3.3940888697481353, 26.249623274401944 3.6759797863453816, 26.12046928754556 4.339158212148129 M26.12046928754556 4.339158212148129 C25.999154219652304 4.801785144308137, 25.877839151759048 5.264412076468145, 25.803398134214884 5.548287939305125 M26.12046928754556 4.339158212148129 C26.022044456647993 4.7144947499521095, 25.923619625750423 5.089831287756089, 25.803398134214884 5.548287939305125 M25.803398134214884 5.548287939305125 C25.704251773496438 5.846900980961761, 25.605105412777988 6.145514022618397, 25.40950922997033 6.734618561215495 M25.803398134214884 5.548287939305125 C25.67377650277817 5.938687640790189, 25.54415487134146 6.329087342275251, 25.40950922997033 6.734618561215495 M25.40950922997033 6.734618561215495 C25.304162629538048 6.994826701021195, 25.198816029105764 7.255034840826894, 24.940421148808344 7.893275190886679 M25.40950922997033 6.734618561215495 C25.303274950633607 6.997019285077261, 25.19704067129689 7.259420008939027, 24.940421148808344 7.893275190886679 M24.940421148808344 7.893275190886679 C24.827039557263795 8.128714491706363, 24.713657965719243 8.364153792526047, 24.398061474273504 9.019496659696284 M24.940421148808344 7.893275190886679 C24.77698239701849 8.232659256007388, 24.613543645228635 8.572043321128096, 24.398061474273504 9.019496659696284 M24.398061474273504 9.019496659696284 C24.206555579414598 9.359534768092928, 24.015049684555695 9.69957287648957, 23.78465887860425 10.108655082055236 M24.398061474273504 9.019496659696284 C24.255458773532077 9.272702194951965, 24.112856072790652 9.525907730207647, 23.78465887860425 10.108655082055236 M23.78465887860425 10.108655082055236 C23.53186527418302 10.497013943033773, 23.279071669761787 10.885372804012311, 23.10273396464064 11.156274872382301 M23.78465887860425 10.108655082055236 C23.582761806812716 10.4188232012819, 23.38086473502118 10.728991320508564, 23.10273396464064 11.156274872382301 M23.10273396464064 11.156274872382301 C22.902196736039194 11.42497648939088, 22.701659507437746 11.693678106399458, 22.355088908126582 12.158051136245302 M23.10273396464064 11.156274872382301 C22.817995510262257 11.537798461042504, 22.53325705588387 11.919322049702707, 22.355088908126582 12.158051136245302 M22.355088908126582 12.158051136245302 C22.040092336855267 12.528064032673251, 21.725095765583955 12.898076929101203, 21.54479594296866 13.10986736009567 M22.355088908126582 12.158051136245302 C22.192954844716553 12.348503032816282, 22.030820781306527 12.53895492938726, 21.54479594296866 13.10986736009567 M21.54479594296866 13.10986736009567 C21.20306602140205 13.462731560661533, 20.861336099835444 13.815595761227396, 20.67518473676799 14.007812326905684 M21.54479594296866 13.10986736009567 C21.22469752182695 13.440395260493611, 20.904599100685243 13.770923160891554, 20.67518473676799 14.007812326905684 M20.67518473676799 14.007812326905684 C20.340120403870074 14.312108888727128, 20.005056070972156 14.616405450548573, 19.749828708501887 14.848196188198111 M20.67518473676799 14.007812326905684 C20.460220092098062 14.203037529542087, 20.245255447428136 14.39826273217849, 19.749828708501887 14.848196188198111 M19.749828708501887 14.848196188198111 C19.36226065702538 15.15727139563163, 18.974692605548874 15.466346603065151, 18.772530344578715 15.627565626425152 M19.749828708501887 14.848196188198111 C19.470789753965715 15.070722328902276, 19.191750799429542 15.293248469606443, 18.772530344578715 15.627565626425152 M18.772530344578715 15.627565626425152 C18.55870426712611 15.776721441674383, 18.344878189673505 15.925877256923615, 17.747305573605708 16.34271804539089 M18.772530344578715 15.627565626425152 C18.449098740375458 15.853177512388859, 18.1256671361722 16.078789398352566, 17.747305573605708 16.34271804539089 M17.747305573605708 16.34271804539089 C17.413956704732964 16.544796088676943, 17.080607835860217 16.746874131962997, 16.678367264076787 16.990714730406093 M17.747305573605708 16.34271804539089 C17.407354462641983 16.548798406631576, 17.06740335167826 16.754878767872263, 16.678367264076787 16.990714730406093 M16.678367264076787 16.990714730406093 C16.428541449308625 17.121048697949572, 16.178715634540467 17.25138266549305, 15.570107912792386 17.56889292409717 M16.678367264076787 16.990714730406093 C16.33530046542365 17.16969245951866, 15.992233666770513 17.348670188631232, 15.570107912792386 17.56889292409717 M15.570107912792386 17.56889292409717 C15.17341759594206 17.744495959966656, 14.776727279091734 17.920098995836145, 14.427081595147804 18.07487676824742 M15.570107912792386 17.56889292409717 C15.311335249194892 17.68344390605345, 15.0525625855974 17.797994888009733, 14.427081595147804 18.07487676824742 M14.427081595147804 18.07487676824742 C13.990098243683397 18.23569068101614, 13.55311489221899 18.396504593784865, 13.253985251460616 18.506587066708033 M14.427081595147804 18.07487676824742 C14.127152464028754 18.185253461013726, 13.827223332909702 18.29563015378003, 13.253985251460616 18.506587066708033 M13.253985251460616 18.506587066708033 C12.92551546893905 18.60407517398736, 12.597045686417484 18.701563281266694, 12.055639386235413 18.86224982926107 M13.253985251460616 18.506587066708033 C12.862013842246807 18.62292212346278, 12.470042433032997 18.73925718021753, 12.055639386235413 18.86224982926107 M12.055639386235413 18.86224982926107 C11.684069361005832 18.947058262798706, 11.31249933577625 19.03186669633634, 10.836968259676766 19.140403561325773 M12.055639386235413 18.86224982926107 C11.742518050323882 18.933717730875202, 11.429396714412354 19.005185632489336, 10.836968259676766 19.140403561325773 M10.836968259676766 19.140403561325773 C10.578458984798488 19.182197336118726, 10.319949709920209 19.223991110911676, 9.602979652847878 19.3399052695533 M10.836968259676766 19.140403561325773 C10.384182147759729 19.21360650849178, 9.931396035842694 19.286809455657785, 9.602979652847878 19.3399052695533 M9.602979652847878 19.3399052695533 C9.330401948986461 19.366200512822157, 9.057824245125044 19.39249575609102, 8.3587442896239 19.45993515863156 M9.602979652847878 19.3399052695533 C9.273312081098057 19.371707903716743, 8.943644509348234 19.403510537880184, 8.3587442896239 19.45993515863156 M8.3587442896239 19.45993515863156 C7.879384975489633 19.475307278819542, 7.400025661355366 19.490679399007526, 7.1093750000000036 19.5 M8.3587442896239 19.45993515863156 C8.037472227571959 19.47023772834343, 7.71620016552002 19.480540298055303, 7.1093750000000036 19.5 M7.1093750000000036 19.5 C7.109375000000003 19.5, 7.109375000000002 19.5, 7.109375 19.5 M7.1093750000000036 19.5 C7.109375000000003 19.5, 7.109375000000001 19.5, 7.109375 19.5 M7.109375 19.5 C4.184087367875856 19.5, 1.2587997357517127 19.5, -7.1093749999999964 19.5 M7.109375 19.5 C3.390097875065368 19.5, -0.32917924986926383 19.5, -7.1093749999999964 19.5 M-7.1093749999999964 19.5 C-7.395907253850927 19.4908114683202, -7.682439507701858 19.4816229366404, -8.358744289623893 19.45993515863156 M-7.1093749999999964 19.5 C-7.398183902663806 19.490738460623998, -7.686992805327617 19.481476921247996, -8.358744289623893 19.45993515863156 M-8.358744289623893 19.45993515863156 C-8.766323689172584 19.42061646414304, -9.173903088721273 19.381297769654523, -9.602979652847871 19.3399052695533 M-8.358744289623893 19.45993515863156 C-8.74401766412558 19.422768299552406, -9.129291038627269 19.385601440473252, -9.602979652847871 19.3399052695533 M-9.602979652847871 19.3399052695533 C-10.014487415874962 19.273375885717442, -10.425995178902053 19.206846501881586, -10.836968259676759 19.140403561325773 M-9.602979652847871 19.3399052695533 C-10.000928536713158 19.275567980149646, -10.398877420578444 19.211230690745992, -10.836968259676759 19.140403561325773 M-10.836968259676759 19.140403561325773 C-11.094161766477 19.081700821743098, -11.35135527327724 19.022998082160427, -12.055639386235388 18.862249829261074 M-10.836968259676759 19.140403561325773 C-11.108556693192378 19.078415273655988, -11.380145126707996 19.016426985986207, -12.055639386235388 18.862249829261074 M-12.055639386235388 18.862249829261074 C-12.482439441979716 18.735577813035366, -12.909239497724045 18.608905796809662, -13.253985251460593 18.506587066708043 M-12.055639386235388 18.862249829261074 C-12.471707055136859 18.73876312911488, -12.88777472403833 18.615276428968684, -13.253985251460593 18.506587066708043 M-13.253985251460593 18.506587066708043 C-13.71630131225113 18.336450482734307, -14.178617373041668 18.16631389876057, -14.427081595147797 18.074876768247425 M-13.253985251460593 18.506587066708043 C-13.50444817412536 18.414414395913532, -13.754911096790126 18.32224172511902, -14.427081595147797 18.074876768247425 M-14.427081595147797 18.074876768247425 C-14.673754883020987 17.965681821009063, -14.920428170894175 17.856486873770702, -15.57010791279238 17.568892924097174 M-14.427081595147797 18.074876768247425 C-14.762535937299889 17.926381081876197, -15.097990279451983 17.77788539550497, -15.57010791279238 17.568892924097174 M-15.57010791279238 17.568892924097174 C-15.872973544958413 17.41088811779085, -16.175839177124445 17.252883311484528, -16.67836726407678 16.990714730406097 M-15.57010791279238 17.568892924097174 C-15.965935432294698 17.36238996071244, -16.361762951797015 17.15588699732771, -16.67836726407678 16.990714730406097 M-16.67836726407678 16.990714730406097 C-16.910796358340153 16.84981484755867, -17.143225452603524 16.70891496471124, -17.747305573605686 16.3427180453909 M-16.67836726407678 16.990714730406097 C-17.019291217262317 16.78404462649349, -17.360215170447855 16.577374522580882, -17.747305573605686 16.3427180453909 M-17.747305573605686 16.3427180453909 C-18.100497192523765 16.09634686145241, -18.453688811441843 15.849975677513923, -18.772530344578712 15.627565626425156 M-17.747305573605686 16.3427180453909 C-17.972703574531234 16.185490157267438, -18.19810157545678 16.028262269143976, -18.772530344578712 15.627565626425156 M-18.772530344578712 15.627565626425156 C-18.999362014413357 15.446673405976266, -19.226193684248003 15.265781185527377, -19.74982870850187 14.848196188198125 M-18.772530344578712 15.627565626425156 C-18.988610471164016 15.455247475607035, -19.20469059774932 15.282929324788913, -19.74982870850187 14.848196188198125 M-19.74982870850187 14.848196188198125 C-20.0827445197284 14.545850856911866, -20.415660330954932 14.243505525625606, -20.675184736767974 14.007812326905697 M-19.74982870850187 14.848196188198125 C-19.97130492129983 14.647057351674494, -20.19278113409779 14.445918515150863, -20.675184736767974 14.007812326905697 M-20.675184736767974 14.007812326905697 C-20.95978716287587 13.71393695565556, -21.244389588983765 13.420061584405422, -21.544795942968655 13.109867360095677 M-20.675184736767974 14.007812326905697 C-20.917291300735737 13.757817422290413, -21.1593978647035 13.507822517675129, -21.544795942968655 13.109867360095677 M-21.544795942968655 13.109867360095677 C-21.791863782989655 12.819647416648651, -22.038931623010654 12.529427473201626, -22.35508890812658 12.158051136245307 M-21.544795942968655 13.109867360095677 C-21.785618633950822 12.826983324068713, -22.02644132493299 12.544099288041748, -22.35508890812658 12.158051136245307 M-22.35508890812658 12.158051136245307 C-22.627523462291762 11.793013652962426, -22.89995801645695 11.427976169679544, -23.102733964640635 11.156274872382316 M-22.35508890812658 12.158051136245307 C-22.647563983567345 11.766161180182195, -22.940039059008107 11.374271224119083, -23.102733964640635 11.156274872382316 M-23.102733964640635 11.156274872382316 C-23.373470461450935 10.74035091035293, -23.644206958261236 10.324426948323545, -23.784658878604244 10.108655082055249 M-23.102733964640635 11.156274872382316 C-23.317569698817994 10.826229493213697, -23.532405432995354 10.496184114045077, -23.784658878604244 10.108655082055249 M-23.784658878604244 10.108655082055249 C-23.93078732202136 9.849189233658722, -24.076915765438475 9.589723385262195, -24.3980614742735 9.019496659696289 M-23.784658878604244 10.108655082055249 C-23.935431928266595 9.840942264952925, -24.086204977928944 9.5732294478506, -24.3980614742735 9.019496659696289 M-24.3980614742735 9.019496659696289 C-24.612803538160342 8.573580169291159, -24.827545602047184 8.127663678886027, -24.94042114880834 7.893275190886686 M-24.3980614742735 9.019496659696289 C-24.60340765974021 8.593090911870153, -24.808753845206923 8.166685164044019, -24.94042114880834 7.893275190886686 M-24.94042114880834 7.893275190886686 C-25.03856546025896 7.650856844112488, -25.136709771709572 7.40843849733829, -25.409509229970325 6.73461856121551 M-24.94042114880834 7.893275190886686 C-25.124827450329672 7.4377880608756985, -25.309233751851004 6.982300930864711, -25.409509229970325 6.73461856121551 M-25.409509229970325 6.73461856121551 C-25.558106152230422 6.287068307072437, -25.706703074490516 5.839518052929364, -25.80339813421488 5.5482879393051325 M-25.409509229970325 6.73461856121551 C-25.4974632424039 6.469715089334381, -25.585417254837477 6.2048116174532515, -25.80339813421488 5.5482879393051325 M-25.80339813421488 5.5482879393051325 C-25.900230663454067 5.1790235378324745, -25.99706319269325 4.809759136359816, -26.120469287545557 4.339158212148136 M-25.80339813421488 5.5482879393051325 C-25.86729665418705 5.304615188857513, -25.931195174159217 5.060942438409893, -26.120469287545557 4.339158212148136 M-26.120469287545557 4.339158212148136 C-26.169358700367717 4.088121410087408, -26.218248113189876 3.8370846080266796, -26.359419776581777 3.112197953150904 M-26.120469287545557 4.339158212148136 C-26.1857085802652 4.004168232362168, -26.250947872984845 3.6691782525762, -26.359419776581777 3.112197953150904 M-26.359419776581777 3.112197953150904 C-26.408118785189956 2.7344980590928367, -26.456817793798134 2.35679816503477, -26.519267702509364 1.872449005199809 M-26.359419776581777 3.112197953150904 C-26.403382606381342 2.771230926668171, -26.447345436180903 2.4302639001854387, -26.519267702509364 1.872449005199809 M-26.519267702509364 1.872449005199809 C-26.53644281130743 1.6049328221716217, -26.5536179201055 1.3374166391434343, -26.599356215913414 0.6250057626472781 M-26.519267702509364 1.872449005199809 C-26.544594526635475 1.4779632759911558, -26.569921350761586 1.0834775467825026, -26.599356215913414 0.6250057626472781 M-26.599356215913414 0.6250057626472781 C-26.599356215913414 0.3735510937170105, -26.599356215913414 0.12209642478674287, -26.599356215913414 -0.6250057626472687 M-26.599356215913414 0.6250057626472781 C-26.599356215913414 0.36251200872257755, -26.599356215913414 0.10001825479787696, -26.599356215913414 -0.6250057626472687 M-26.599356215913414 -0.6250057626472687 C-26.569497358137713 -1.0900815741400276, -26.53963850036201 -1.5551573856327865, -26.519267702509367 -1.8724490051997822 M-26.599356215913414 -0.6250057626472687 C-26.578465940803266 -0.950388659814368, -26.557575665693122 -1.2757715569814674, -26.519267702509367 -1.8724490051997822 M-26.519267702509367 -1.8724490051997822 C-26.45570213003601 -2.3654510328610803, -26.392136557562655 -2.8584530605223786, -26.359419776581777 -3.112197953150895 M-26.519267702509367 -1.8724490051997822 C-26.486830515860603 -2.12402541940058, -26.45439332921184 -2.375601833601378, -26.359419776581777 -3.112197953150895 M-26.359419776581777 -3.112197953150895 C-26.269943032341523 -3.5716421239080147, -26.180466288101268 -4.031086294665134, -26.12046928754556 -4.339158212148126 M-26.359419776581777 -3.112197953150895 C-26.26930619525831 -3.574912147734744, -26.17919261393484 -4.0376263423185925, -26.12046928754556 -4.339158212148126 M-26.12046928754556 -4.339158212148126 C-26.029774237096223 -4.685017746994965, -25.939079186646886 -5.030877281841803, -25.803398134214884 -5.548287939305123 M-26.12046928754556 -4.339158212148126 C-26.010805991947993 -4.757351886634617, -25.901142696350423 -5.175545561121108, -25.803398134214884 -5.548287939305123 M-25.803398134214884 -5.548287939305123 C-25.720733723707532 -5.797259972968076, -25.638069313200184 -6.04623200663103, -25.409509229970332 -6.734618561215485 M-25.803398134214884 -5.548287939305123 C-25.68289411471191 -5.911226846339941, -25.56239009520894 -6.27416575337476, -25.409509229970332 -6.734618561215485 M-25.409509229970332 -6.734618561215485 C-25.227692136208457 -7.183710298001687, -25.045875042446585 -7.632802034787889, -24.940421148808344 -7.893275190886676 M-25.409509229970332 -6.734618561215485 C-25.223006917516162 -7.1952828787541945, -25.036504605061996 -7.655947196292904, -24.940421148808344 -7.893275190886676 M-24.940421148808344 -7.893275190886676 C-24.825220226719633 -8.132492370508748, -24.710019304630922 -8.371709550130818, -24.398061474273504 -9.019496659696282 M-24.940421148808344 -7.893275190886676 C-24.803183206771013 -8.178252713948751, -24.66594526473368 -8.463230237010826, -24.398061474273504 -9.019496659696282 M-24.398061474273504 -9.019496659696282 C-24.25987482519836 -9.26486104804476, -24.121688176123214 -9.51022543639324, -23.784658878604247 -10.108655082055243 M-24.398061474273504 -9.019496659696282 C-24.2562719033065 -9.271258400699159, -24.1144823323395 -9.523020141702034, -23.784658878604247 -10.108655082055243 M-23.784658878604247 -10.108655082055243 C-23.644863970536125 -10.323417601036818, -23.505069062468003 -10.538180120018392, -23.10273396464064 -11.156274872382308 M-23.784658878604247 -10.108655082055243 C-23.62768721285372 -10.349805713442256, -23.470715547103193 -10.590956344829268, -23.10273396464064 -11.156274872382308 M-23.10273396464064 -11.156274872382308 C-22.870283430043894 -11.467737412062602, -22.637832895447147 -11.779199951742894, -22.355088908126586 -12.158051136245302 M-23.10273396464064 -11.156274872382308 C-22.86527719883735 -11.474445305802327, -22.627820433034056 -11.792615739222347, -22.355088908126586 -12.158051136245302 M-22.355088908126586 -12.158051136245302 C-22.147416886486752 -12.401994509736241, -21.939744864846915 -12.64593788322718, -21.544795942968662 -13.10986736009567 M-22.355088908126586 -12.158051136245302 C-22.082291138925562 -12.478494918581626, -21.809493369724542 -12.798938700917951, -21.544795942968662 -13.10986736009567 M-21.544795942968662 -13.10986736009567 C-21.2824320728983 -13.38077959641765, -21.020068202827936 -13.651691832739631, -20.675184736767996 -14.007812326905677 M-21.544795942968662 -13.10986736009567 C-21.352995961047238 -13.30791658850091, -21.161195979125814 -13.505965816906153, -20.675184736767996 -14.007812326905677 M-20.675184736767996 -14.007812326905677 C-20.31258367443165 -14.337117017821164, -19.949982612095308 -14.666421708736653, -19.749828708501887 -14.848196188198107 M-20.675184736767996 -14.007812326905677 C-20.33756315070499 -14.314431318390442, -19.99994156464199 -14.621050309875205, -19.749828708501887 -14.848196188198107 M-19.749828708501887 -14.848196188198107 C-19.429264759956272 -15.103837406598304, -19.10870081141066 -15.3594786249985, -18.77253034457872 -15.627565626425149 M-19.749828708501887 -14.848196188198107 C-19.483685122686556 -15.060438615507575, -19.217541536871227 -15.272681042817041, -18.77253034457872 -15.627565626425149 M-18.77253034457872 -15.627565626425149 C-18.53861819242315 -15.790732617875006, -18.304706040267586 -15.953899609324864, -17.74730557360571 -16.342718045390885 M-18.77253034457872 -15.627565626425149 C-18.5337309344158 -15.794141757494945, -18.294931524252885 -15.960717888564742, -17.74730557360571 -16.342718045390885 M-17.74730557360571 -16.342718045390885 C-17.387292522003833 -16.56096007294347, -17.027279470401957 -16.779202100496054, -16.67836726407679 -16.99071473040609 M-17.74730557360571 -16.342718045390885 C-17.37732641013477 -16.56700158852587, -17.00734724666383 -16.791285131660857, -16.67836726407679 -16.99071473040609 M-16.67836726407679 -16.99071473040609 C-16.30164385169107 -17.18725109334486, -15.924920439305353 -17.383787456283628, -15.57010791279239 -17.56889292409717 M-16.67836726407679 -16.99071473040609 C-16.313983666852796 -17.180813419679016, -15.9496000696288 -17.37091210895194, -15.57010791279239 -17.56889292409717 M-15.57010791279239 -17.56889292409717 C-15.184650476181375 -17.73952349709627, -14.799193039570362 -17.910154070095363, -14.427081595147806 -18.07487676824742 M-15.57010791279239 -17.56889292409717 C-15.240789869086449 -17.714672253173113, -14.911471825380506 -17.860451582249055, -14.427081595147806 -18.07487676824742 M-14.427081595147806 -18.07487676824742 C-14.03021198761193 -18.220928452443058, -13.633342380076055 -18.3669801366387, -13.253985251460618 -18.506587066708033 M-14.427081595147806 -18.07487676824742 C-14.14613313829236 -18.178268397429292, -13.865184681436913 -18.28166002661116, -13.253985251460618 -18.506587066708033 M-13.253985251460618 -18.506587066708033 C-12.784490332499546 -18.64593069422656, -12.314995413538474 -18.785274321745085, -12.055639386235413 -18.862249829261067 M-13.253985251460618 -18.506587066708033 C-12.860484138419555 -18.623376131529128, -12.46698302537849 -18.740165196350226, -12.055639386235413 -18.862249829261067 M-12.055639386235413 -18.862249829261067 C-11.7465072039411 -18.93280723259373, -11.437375021646789 -19.003364635926395, -10.836968259676768 -19.140403561325773 M-12.055639386235413 -18.862249829261067 C-11.702990667174088 -18.94273959813886, -11.350341948112764 -19.023229367016654, -10.836968259676768 -19.140403561325773 M-10.836968259676768 -19.140403561325773 C-10.48973222191322 -19.196541991055692, -10.142496184149675 -19.252680420785612, -9.60297965284788 -19.3399052695533 M-10.836968259676768 -19.140403561325773 C-10.406873427757024 -19.209937958315322, -9.976778595837278 -19.27947235530487, -9.60297965284788 -19.3399052695533 M-9.60297965284788 -19.3399052695533 C-9.196809291612405 -19.37908803581036, -8.79063893037693 -19.418270802067415, -8.358744289623903 -19.45993515863156 M-9.60297965284788 -19.3399052695533 C-9.345721329166034 -19.364722670640486, -9.08846300548419 -19.389540071727673, -8.358744289623903 -19.45993515863156 M-8.358744289623903 -19.45993515863156 C-7.928408452792359 -19.473735191320856, -7.498072615960815 -19.48753522401015, -7.109375000000006 -19.5 M-8.358744289623903 -19.45993515863156 C-7.961762401409622 -19.47266559510822, -7.564780513195342 -19.485396031584884, -7.109375000000006 -19.5 M-7.109375000000006 -19.5 C-7.1093750000000036 -19.5, -7.109375000000001 -19.5, -7.109375 -19.5 M-7.109375000000006 -19.5 C-7.1093750000000036 -19.5, -7.109375000000002 -19.5, -7.109375 -19.5" stroke="hsl(40.5882352941, 60%, 83.3333333333%)" stroke-width="1.3" fill="none" stroke-dasharray="0 0" style=""></path></g><g class="label" style="" transform="translate(-14.234375, -12)"><rect></rect><foreignObject width="28.46875" height="24"><div xmlns="http://www.w3.org/1999/xhtml" style="display: table-cell; white-space: nowrap; line-height: 1.5; max-width: 200px; text-align: center;"><span class="nodeLabel "><p>End</p></span></div></foreignObject></g></g></g></g></g></g></svg>